<svg width="129" height="107" viewBox="0 0 129 107" fill="none" xmlns="http://www.w3.org/2000/svg">
<path d="M126.484 93.112C124.024 90.6895 94.208 79.1565 88.7977 76.981C83.416 74.8435 81.269 68.9202 81.269 68.9202C81.269 68.9202 78.8465 70.2597 78.8465 66.4977C78.8465 62.731 81.269 68.9202 83.6915 54.3947C83.6915 54.3947 90.4127 52.509 89.078 36.9147H87.463C87.463 36.9147 91.5005 20.2422 87.463 14.5992C83.4112 8.95622 81.8247 5.19422 72.928 2.49622C64.0455 -0.197025 67.2755 0.339725 60.825 0.615225C54.365 0.885975 48.988 4.38197 48.988 6.25822C48.988 6.25822 44.9505 6.52898 43.345 8.14398C41.73 9.75898 39.0415 17.283 39.0415 19.164C39.0415 21.045 40.3857 33.699 41.73 36.378L40.1292 36.9005C38.785 52.4995 45.5062 54.39 45.5062 54.39C47.9287 68.9155 50.3512 62.7262 50.3512 66.493C50.3512 70.255 47.9287 68.9155 47.9287 68.9155C47.9287 68.9155 45.777 74.834 40.4 76.9762C35.023 79.128 5.17397 90.6895 2.74672 93.1072C0.324225 95.5772 0.594974 106.863 0.594974 106.863H57.766L61.9365 90.4282L58.2315 86.7232L64.6107 80.3345L70.99 86.7185L67.285 90.4235L71.4555 106.858H128.626C128.626 106.858 128.926 95.563 126.475 93.0977L126.484 93.112Z" fill="#E1E1E1"/>
</svg>
