<svg width="122" height="118" viewBox="0 0 122 118" fill="none" xmlns="http://www.w3.org/2000/svg">
<path d="M61.0002 87.0536C58.8693 87.0536 57.0818 86.3316 55.6378 84.8876C54.1938 83.4436 53.4743 81.6587 53.4793 79.5328V25.7588L39.3778 39.8604C37.8736 41.3646 36.1187 42.1166 34.1132 42.1166C32.1076 42.1166 30.2901 41.3019 28.6606 39.6724C27.1564 38.1682 26.4369 36.3833 26.5021 34.3175C26.5673 32.2518 27.2868 30.5271 28.6606 29.1432L55.7356 2.06823C56.4877 1.31614 57.3024 0.784671 58.1798 0.47381C59.0573 0.162949 59.9974 0.00501389 61.0002 0C62.0029 0 62.943 0.157935 63.8205 0.47381C64.6979 0.789685 65.5126 1.32116 66.2647 2.06823L93.3397 29.1432C94.8439 30.6474 95.5659 32.4348 95.5057 34.5056C95.4456 36.5763 94.7236 38.2986 93.3397 39.6724C91.8356 41.1765 90.0481 41.9612 87.9774 42.0264C85.9066 42.0916 84.1217 41.3696 82.6225 39.8604L68.521 25.7588V79.5328C68.521 81.6637 67.799 83.4511 66.355 84.8951C64.911 86.3391 63.126 87.0586 61.0002 87.0536ZM15.8752 117.137C11.7387 117.137 8.1964 115.663 5.24824 112.715C2.30007 109.767 0.828495 106.227 0.833509 102.095V87.0536C0.833509 84.9227 1.55551 83.1353 2.99951 81.6913C4.44351 80.2473 6.22845 79.5278 8.35434 79.5328C10.4852 79.5328 12.2727 80.2548 13.7167 81.6988C15.1607 83.1428 15.8802 84.9277 15.8752 87.0536V102.095H106.125V87.0536C106.125 84.9227 106.847 83.1353 108.291 81.6913C109.735 80.2473 111.52 79.5278 113.646 79.5328C115.777 79.5328 117.564 80.2548 119.008 81.6988C120.452 83.1428 121.172 84.9277 121.167 87.0536V102.095C121.167 106.232 119.693 109.774 116.745 112.722C113.796 115.67 110.257 117.142 106.125 117.137H15.8752Z" fill="#E1E1E1"/>
</svg>
