<svg width="122" height="122" viewBox="0 0 122 122" fill="none" xmlns="http://www.w3.org/2000/svg">
<path d="M91.0835 75.3251V92.5155H73.0335V103.976H91.0835V121.166H103.117V103.976H121.167V92.5155H103.117V75.3251H91.0835ZM100.108 9.42825L91.0835 0.833008L82.0585 9.42825L73.0335 0.833008L64.0085 9.42825L54.9835 0.833008L45.9585 9.42825L36.9335 0.833008L27.9085 9.42825L18.8835 0.833008L9.8585 9.42825L0.833496 0.833008V115.436L9.8585 106.841L18.8835 115.436L27.9085 106.841L36.9335 115.436L45.9585 106.841L54.9835 115.436L62.5645 108.216C61.5417 105.007 61.0002 101.627 61.0002 98.2457C61.0002 94.3492 61.7222 90.4527 63.0458 86.7854H18.8835V75.3251H70.2057C74.9753 70.2457 81.2216 66.6299 88.1522 64.9364C95.0827 63.2429 102.385 63.548 109.133 65.813V0.833008L100.108 9.42825ZM91.0835 63.8648H18.8835V52.4044H91.0835V63.8648ZM91.0835 40.9441H18.8835V29.4838H91.0835V40.9441Z" fill="#E1E1E1"/>
</svg>
