<svg width="140" height="141" viewBox="0 0 140 141" fill="none" xmlns="http://www.w3.org/2000/svg">
<path d="M65.4168 64.6725V134.365L60.7658 136.691L0.302246 106.532V30.9525L60.7658 0.720703L121.229 30.9525V85.0208H111.927V41.4173L65.4168 64.6725ZM60.7658 11.1855L43.2517 19.9062L88.3813 42.7254L106.186 33.8594L60.7658 11.1855ZM56.1147 123.973V64.6725L9.60433 41.4173V100.718L56.1147 123.973ZM15.3455 33.8594L60.7658 56.5332L78.0618 47.9578L32.8595 25.1387L15.3455 33.8594ZM93.3231 122.229V112.927H139.833V122.229H93.3231ZM93.3231 94.3229H139.833V103.625H93.3231V94.3229ZM74.7189 140.833V131.531H84.021V140.833H74.7189ZM74.7189 103.625V94.3229H84.021V103.625H74.7189ZM74.7189 122.229V112.927H84.021V122.229H74.7189ZM93.3231 140.833V131.531H139.833V140.833H93.3231Z" fill="#E1E1E1"/>
</svg>
