<svg width="114" height="114" viewBox="0 0 114 114" fill="none" xmlns="http://www.w3.org/2000/svg">
<path d="M83.4735 105.133L70.7435 83.0933C76.9502 78.5333 81.2568 71.44 82.1435 63.3333H107.667C107.144 71.6977 104.687 79.8266 100.488 87.08C96.2903 94.3334 90.4658 100.513 83.4735 105.133ZM63.3335 25.5233V0C90.5668 1.64667 112.354 23.4333 114 50.6667H88.4768C87.7696 44.2412 84.8932 38.2488 80.3223 33.6779C75.7514 29.107 69.7589 26.2306 63.3335 25.5233ZM25.3335 60.1667C25.3335 64.22 26.1569 68.0833 27.7402 71.5667L5.70019 84.2967C1.93074 76.8129 -0.0220348 68.5461 0.00018756 60.1667C0.00018756 31.4767 22.4202 8.04333 50.6668 6.33333V31.8567C36.4169 33.44 25.3335 45.4733 25.3335 60.1667ZM53.8335 114C35.0235 114 18.4935 104.5 8.86685 89.8067L30.9069 77.0767C33.5437 80.6795 36.9953 83.6077 40.9799 85.6219C44.9644 87.6362 49.3688 88.6795 53.8335 88.6667C57.8868 88.6667 61.7502 87.8433 65.2335 86.26L77.9635 108.3C70.6802 111.973 62.5102 114 53.8335 114Z" fill="#E1E1E1"/>
</svg>
