<svg width="107" height="134" viewBox="0 0 107 134" fill="none" xmlns="http://www.w3.org/2000/svg">
<path d="M33.2407 20.2031H19.8704C16.3243 20.2031 12.9235 21.6118 10.4161 24.1192C7.90866 26.6266 6.5 30.0274 6.5 33.5735V113.796C6.5 117.342 7.90866 120.743 10.4161 123.25C12.9235 125.757 16.3243 127.166 19.8704 127.166H86.7222C90.2683 127.166 93.6691 125.757 96.1765 123.25C98.6839 120.743 100.093 117.342 100.093 113.796V33.5735C100.093 30.0274 98.6839 26.6266 96.1765 24.1192C93.6691 21.6118 90.2683 20.2031 86.7222 20.2031H73.3518" stroke="#E1E1E1" stroke-width="12" stroke-linecap="round" stroke-linejoin="round"/>
<path d="M33.2373 100.426V66.9997M53.2929 100.426V93.7404M73.3484 100.426V80.37M33.2373 20.2034C33.2373 16.6573 34.646 13.2565 37.1534 10.7491C39.6608 8.24167 43.0616 6.83301 46.6077 6.83301H59.9781C63.5241 6.83301 66.9249 8.24167 69.4323 10.7491C71.9398 13.2565 73.3484 16.6573 73.3484 20.2034C73.3484 23.7494 71.9398 27.1502 69.4323 29.6577C66.9249 32.1651 63.5241 33.5737 59.9781 33.5737H46.6077C43.0616 33.5737 39.6608 32.1651 37.1534 29.6577C34.646 27.1502 33.2373 23.7494 33.2373 20.2034Z" stroke="#E1E1E1" stroke-width="12" stroke-linecap="round" stroke-linejoin="round"/>
</svg>
