<svg width="134" height="114" viewBox="0 0 134 114" fill="none" xmlns="http://www.w3.org/2000/svg">
<path d="M25.9998 44.27H38.6665V88.6033H25.9998V44.27ZM76.6665 63.27H89.3332V88.6033H76.6665V63.27ZM51.3332 25.27H63.9998V88.6033H51.3332V25.27ZM114.667 25.3333V6.33333H102V25.3333H82.9998V38H102V57H114.667V38H133.667V25.3333H114.667ZM102 101.333H13.3332V12.6667H89.3332V0H13.3332C6.3665 0 0.666504 5.7 0.666504 12.6667V101.333C0.666504 108.3 6.3665 114 13.3332 114H102C108.967 114 114.667 108.3 114.667 101.333V69.6667H102V101.333Z" fill="#E1E1E1"/>
</svg>
