<svg width="48" height="48" viewBox="0 0 48 48" fill="none" xmlns="http://www.w3.org/2000/svg">
<g filter="url(#filter0_d_1_36)">
<path d="M6 40H42V44H6V40ZM42 38H6L4.294 15.62C3.64627 15.3146 3.09241 14.8408 2.69026 14.2483C2.2881 13.6557 2.05241 12.9661 2.00778 12.2513C1.96315 11.5366 2.11122 10.823 2.43653 10.185C2.76184 9.54702 3.25247 9.00807 3.85717 8.62443C4.46188 8.2408 5.15849 8.02654 5.87427 8.00403C6.59005 7.98152 7.29875 8.15158 7.92637 8.49647C8.55398 8.84135 9.0775 9.3484 9.44226 9.96468C9.80702 10.581 9.99963 11.2839 10 12C9.99977 12.2009 9.98372 12.4016 9.952 12.6L15.426 16.978L20.55 8.006C20.1883 7.39953 19.9981 6.70615 20 6C20 4.93913 20.4214 3.92172 21.1716 3.17157C21.9217 2.42143 22.9391 2 24 2C25.0609 2 26.0783 2.42143 26.8284 3.17157C27.5786 3.92172 28 4.93913 28 6C28.0018 6.70705 27.811 7.40123 27.448 8.008L32.564 16.978L38.046 12.598C38.015 12.4002 37.9996 12.2002 38 12C38.0004 11.2839 38.193 10.581 38.5577 9.96468C38.9225 9.3484 39.446 8.84135 40.0736 8.49647C40.7013 8.15158 41.41 7.98152 42.1257 8.00403C42.8415 8.02654 43.5381 8.2408 44.1428 8.62443C44.7475 9.00807 45.2382 9.54702 45.5635 10.185C45.8888 10.823 46.0369 11.5366 45.9922 12.2513C45.9476 12.9661 45.7119 13.6557 45.3097 14.2483C44.9076 14.8408 44.3537 15.3146 43.706 15.62L42 38ZM9.84 34H38.16L39.62 16.46L31.408 23.022L24 10.034L16.58 23.022L8.38 16.462L9.84 34Z" fill="#202020"/>
</g>
<defs>
<filter id="filter0_d_1_36" x="-14" y="-10" width="76" height="74" filterUnits="userSpaceOnUse" color-interpolation-filters="sRGB">
<feFlood flood-opacity="0" result="BackgroundImageFix"/>
<feColorMatrix in="SourceAlpha" type="matrix" values="0 0 0 0 0 0 0 0 0 0 0 0 0 0 0 0 0 0 127 0" result="hardAlpha"/>
<feOffset dy="4"/>
<feGaussianBlur stdDeviation="8"/>
<feComposite in2="hardAlpha" operator="out"/>
<feColorMatrix type="matrix" values="0 0 0 0 0 0 0 0 0 0 0 0 0 0 0 0 0 0 0.24 0"/>
<feBlend mode="normal" in2="BackgroundImageFix" result="effect1_dropShadow_1_36"/>
<feBlend mode="normal" in="SourceGraphic" in2="effect1_dropShadow_1_36" result="shape"/>
</filter>
</defs>
</svg>
