<svg width="152" height="90" viewBox="0 0 152 90" fill="none" xmlns="http://www.w3.org/2000/svg">
<path d="M76 20.3707C70.9895 20.3707 66.0916 21.8152 61.9256 24.5215C57.7595 27.2279 54.5125 31.0745 52.595 35.575C50.6776 40.0755 50.1759 45.0277 51.1534 49.8053C52.1309 54.583 54.5437 58.9716 58.0866 62.4161C61.6296 65.8606 66.1435 68.2064 71.0577 69.1567C75.9719 70.107 81.0656 69.6193 85.6946 67.7551C90.3237 65.891 94.2802 62.7341 97.0639 58.6838C99.8476 54.6335 101.333 49.8716 101.333 45.0003C101.333 38.4681 98.6643 32.2035 93.9134 27.5845C89.1625 22.9656 82.7188 20.3707 76 20.3707ZM76 59.7781C72.9937 59.7781 70.055 58.9114 67.5553 57.2876C65.0557 55.6638 63.1075 53.3558 61.957 50.6555C60.8066 47.9553 60.5056 44.9839 61.0921 42.1173C61.6786 39.2507 63.1262 36.6176 65.252 34.5509C67.3777 32.4841 70.0861 31.0767 73.0346 30.5065C75.9831 29.9363 79.0394 30.2289 81.8168 31.3474C84.5942 32.4659 86.9681 34.36 88.6383 36.7902C90.3085 39.2204 91.2 42.0776 91.2 45.0003C91.2 48.9196 89.5986 52.6784 86.748 55.4498C83.8975 58.2212 80.0313 59.7781 76 59.7781ZM146.933 0.666992H5.06667C3.7229 0.666992 2.43418 1.18597 1.48399 2.10976C0.533808 3.03355 0 4.28648 0 5.59292V84.4077C0 85.7142 0.533808 86.9671 1.48399 87.8909C2.43418 88.8147 3.7229 89.3337 5.06667 89.3337H146.933C148.277 89.3337 149.566 88.8147 150.516 87.8909C151.466 86.9671 152 85.7142 152 84.4077V5.59292C152 4.28648 151.466 3.03355 150.516 2.10976C149.566 1.18597 148.277 0.666992 146.933 0.666992ZM117.578 79.4818H34.4217C32.7206 73.8884 29.6071 68.7977 25.3649 64.6733C21.1227 60.549 15.8865 57.522 10.1333 55.8681V34.1325C15.8865 32.4787 21.1227 29.4517 25.3649 25.3273C29.6071 21.2029 32.7206 16.1122 34.4217 10.5188H117.578C119.279 16.1122 122.393 21.2029 126.635 25.3273C130.877 29.4517 136.113 32.4787 141.867 34.1325V55.8681C136.113 57.522 130.877 60.549 126.635 64.6733C122.393 68.7977 119.279 73.8884 117.578 79.4818ZM141.867 23.6772C135.789 21.1366 130.946 16.4273 128.332 10.5188H141.867V23.6772ZM23.6677 10.5188C21.0545 16.4273 16.2106 21.1366 10.1333 23.6772V10.5188H23.6677ZM10.1333 66.3234C16.2106 68.864 21.0545 73.5734 23.6677 79.4818H10.1333V66.3234ZM128.332 79.4818C130.946 73.5734 135.789 68.864 141.867 66.3234V79.4818H128.332Z" fill="#E1E1E1"/>
</svg>
