<svg width="148" height="128" viewBox="0 0 148 128" fill="none" xmlns="http://www.w3.org/2000/svg">
<g filter="url(#filter0_d_62_3049)">
<path d="M19 12.2502C17.7402 12.2502 16.532 12.7506 15.6412 13.6414C14.7504 14.5322 14.25 15.7404 14.25 17.0002C14.25 18.26 14.7504 19.4682 15.6412 20.359C16.532 21.2498 17.7402 21.7502 19 21.7502H29.545L42.009 71.6252C43.0682 75.8527 46.854 78.7502 51.2098 78.7502H110.442C114.731 78.7502 118.375 75.9002 119.501 71.7677L131.812 26.5002H121.866L110.438 69.2502H51.205L38.7457 19.3752C38.2311 17.329 37.0447 15.5148 35.3765 14.2229C33.7083 12.9311 31.6549 12.2364 29.545 12.2502H19ZM104.5 78.7502C96.6862 78.7502 90.25 85.1864 90.25 93.0002C90.25 100.814 96.6862 107.25 104.5 107.25C112.314 107.25 118.75 100.814 118.75 93.0002C118.75 85.1864 112.314 78.7502 104.5 78.7502ZM61.75 78.7502C53.9362 78.7502 47.5 85.1864 47.5 93.0002C47.5 100.814 53.9362 107.25 61.75 107.25C69.5638 107.25 76 100.814 76 93.0002C76 85.1864 69.5638 78.7502 61.75 78.7502ZM76 12.2502V36.0002H61.75L80.75 55.0002L99.75 36.0002H85.5V12.2502H76ZM61.75 88.2502C64.429 88.2502 66.5 90.3212 66.5 93.0002C66.5 95.6792 64.429 97.7502 61.75 97.7502C59.071 97.7502 57 95.6792 57 93.0002C57 90.3212 59.071 88.2502 61.75 88.2502ZM104.5 88.2502C107.179 88.2502 109.25 90.3212 109.25 93.0002C109.25 95.6792 107.179 97.7502 104.5 97.7502C101.821 97.7502 99.75 95.6792 99.75 93.0002C99.75 90.3212 101.821 88.2502 104.5 88.2502Z" fill="#E1E1E1"/>
</g>
<defs>
<filter id="filter0_d_62_3049" x="-1.75" y="0.25" width="149.562" height="127" filterUnits="userSpaceOnUse" color-interpolation-filters="sRGB">
<feFlood flood-opacity="0" result="BackgroundImageFix"/>
<feColorMatrix in="SourceAlpha" type="matrix" values="0 0 0 0 0 0 0 0 0 0 0 0 0 0 0 0 0 0 127 0" result="hardAlpha"/>
<feOffset dy="4"/>
<feGaussianBlur stdDeviation="8"/>
<feComposite in2="hardAlpha" operator="out"/>
<feColorMatrix type="matrix" values="0 0 0 0 0 0 0 0 0 0 0 0 0 0 0 0 0 0 0.24 0"/>
<feBlend mode="normal" in2="BackgroundImageFix" result="effect1_dropShadow_62_3049"/>
<feBlend mode="normal" in="SourceGraphic" in2="effect1_dropShadow_62_3049" result="shape"/>
</filter>
</defs>
</svg>
