<svg width="150" height="152" viewBox="0 0 150 152" fill="none" xmlns="http://www.w3.org/2000/svg">
<g filter="url(#filter0_d_62_2180)">
<path d="M104.5 42.75H123.956C125.133 42.7512 126.267 43.1891 127.139 43.9789C128.012 44.7687 128.56 45.8542 128.677 47.025L131.575 76H122.018L119.643 52.25H104.5V66.5C104.5 67.7598 103.999 68.968 103.109 69.8588C102.218 70.7496 101.01 71.25 99.7498 71.25C98.4901 71.25 97.2819 70.7496 96.3911 69.8588C95.5003 68.968 94.9998 67.7598 94.9998 66.5V52.25H56.9998V66.5C56.9998 67.7598 56.4994 68.968 55.6086 69.8588C54.7178 70.7496 53.5096 71.25 52.2498 71.25C50.9901 71.25 49.7819 70.7496 48.8911 69.8588C48.0003 68.968 47.4998 67.7598 47.4998 66.5V52.25H32.3473L24.7473 128.25H75.9998V137.75H19.4938C18.8304 137.749 18.1745 137.61 17.5683 137.34C16.9621 137.071 16.4191 136.677 15.9743 136.185C15.5295 135.692 15.1927 135.112 14.9857 134.482C14.7787 133.852 14.706 133.185 14.7723 132.525L23.3223 47.025C23.44 45.8542 23.9881 44.7687 24.8604 43.9789C25.7327 43.1891 26.8671 42.7512 28.0438 42.75H47.4998V39.4345C47.4998 22.9615 60.1918 9.5 75.9998 9.5C91.8078 9.5 104.5 22.9615 104.5 39.4345V42.7595V42.75ZM94.9998 42.75V39.4345C94.9998 28.0915 86.4308 19 75.9998 19C65.5688 19 56.9998 28.0915 56.9998 39.4345V42.7595H94.9998V42.75ZM124.896 114.57L114 103.683V137.75C114 139.01 113.499 140.218 112.609 141.109C111.718 142 110.51 142.5 109.25 142.5C107.99 142.5 106.782 142 105.891 141.109C105 140.218 104.5 139.01 104.5 137.75V103.683L93.6128 114.57C93.1747 115.024 92.6505 115.386 92.071 115.634C91.4915 115.883 90.8682 116.014 90.2375 116.02C89.6068 116.025 88.9813 115.905 88.3976 115.666C87.8138 115.428 87.2835 115.075 86.8375 114.629C86.3915 114.183 86.0388 113.653 85.7999 113.069C85.5611 112.485 85.4409 111.86 85.4464 111.229C85.4519 110.598 85.5829 109.975 85.8319 109.395C86.0808 108.816 86.4427 108.292 86.8963 107.854L105.896 88.8535C106.787 87.963 107.995 87.4628 109.255 87.4628C110.514 87.4628 111.722 87.963 112.613 88.8535L131.613 107.854C132.067 108.292 132.428 108.816 132.677 109.395C132.926 109.975 133.057 110.598 133.063 111.229C133.068 111.86 132.948 112.485 132.709 113.069C132.47 113.653 132.118 114.183 131.672 114.629C131.226 115.075 130.695 115.428 130.112 115.666C129.528 115.905 128.902 116.025 128.272 116.02C127.641 116.014 127.018 115.883 126.438 115.634C125.859 115.386 125.335 115.024 124.896 114.57Z" fill="#E1E1E1"/>
</g>
<defs>
<filter id="filter0_d_62_2180" x="-1.25146" y="-2.5" width="150.314" height="165" filterUnits="userSpaceOnUse" color-interpolation-filters="sRGB">
<feFlood flood-opacity="0" result="BackgroundImageFix"/>
<feColorMatrix in="SourceAlpha" type="matrix" values="0 0 0 0 0 0 0 0 0 0 0 0 0 0 0 0 0 0 127 0" result="hardAlpha"/>
<feOffset dy="4"/>
<feGaussianBlur stdDeviation="8"/>
<feComposite in2="hardAlpha" operator="out"/>
<feColorMatrix type="matrix" values="0 0 0 0 0 0 0 0 0 0 0 0 0 0 0 0 0 0 0.24 0"/>
<feBlend mode="normal" in2="BackgroundImageFix" result="effect1_dropShadow_62_2180"/>
<feBlend mode="normal" in="SourceGraphic" in2="effect1_dropShadow_62_2180" result="shape"/>
</filter>
</defs>
</svg>
