<svg width="122" height="122" viewBox="0 0 122 122" fill="none" xmlns="http://www.w3.org/2000/svg">
<path d="M61.0002 87.8867C59.9974 87.8867 59.0573 87.7312 58.1798 87.4204C57.3024 87.1095 56.4877 86.5755 55.7356 85.8184L28.6606 58.7434C27.2818 57.3646 26.5924 55.6097 26.5924 53.4788C26.5924 51.3479 27.2818 49.5931 28.6606 48.2143C30.0394 46.8354 31.8269 46.116 34.0229 46.0558C36.219 45.9956 38.004 46.6524 39.3778 48.0262L53.4793 62.1278V8.35386C53.4793 6.22296 54.2013 4.43551 55.6453 2.99151C57.0893 1.54751 58.8743 0.82802 61.0002 0.833034C63.1311 0.833034 64.9185 1.55503 66.3625 2.99903C67.8065 4.44303 68.526 6.22798 68.521 8.35386V62.1278L82.6225 48.0262C84.0014 46.6474 85.7888 45.9881 87.9849 46.0483C90.181 46.1084 91.9659 46.8304 93.3397 48.2143C94.7185 49.5931 95.408 51.3479 95.408 53.4788C95.408 55.6097 94.7185 57.3646 93.3397 58.7434L66.2647 85.8184C65.5126 86.5705 64.6979 87.1045 63.8205 87.4204C62.943 87.7362 62.0029 87.8917 61.0002 87.8867ZM15.8752 121.166C11.7387 121.166 8.1964 119.692 5.24824 116.744C2.30007 113.796 0.828495 110.256 0.833509 106.125V91.083C0.833509 88.9521 1.55551 87.1646 2.99951 85.7206C4.44351 84.2766 6.22845 83.5572 8.35434 83.5622C10.4852 83.5622 12.2727 84.2842 13.7167 85.7282C15.1607 87.1722 15.8802 88.9571 15.8752 91.083V106.125H106.125V91.083C106.125 88.9521 106.847 87.1646 108.291 85.7206C109.735 84.2766 111.52 83.5572 113.646 83.5622C115.777 83.5622 117.564 84.2842 119.008 85.7282C120.452 87.1722 121.172 88.9571 121.167 91.083V106.125C121.167 110.261 119.693 113.803 116.745 116.752C113.796 119.7 110.257 121.171 106.125 121.166H15.8752Z" fill="#E1E1E1"/>
</svg>
