<svg width="152" height="145" viewBox="0 0 152 145" fill="none" xmlns="http://www.w3.org/2000/svg">
<path d="M104.672 144.012C103.111 144.012 101.55 143.437 100.317 142.204C97.9346 139.822 97.9346 135.878 100.317 133.495L141.481 92.3319C143.863 89.9492 147.807 89.9492 150.19 92.3319C152.572 94.7147 152.572 98.6584 150.19 101.041L109.026 142.204C107.794 143.355 106.233 144.012 104.672 144.012Z" fill="#E1E1E1"/>
<path d="M145.838 102.77H6.16216C2.79351 102.77 0 99.9761 0 96.6075C0 93.2388 2.79351 90.4453 6.16216 90.4453H145.838C149.206 90.4453 152 93.2388 152 96.6075C152 99.9761 149.206 102.77 145.838 102.77Z" fill="#E1E1E1"/>
<path d="M6.15773 53.634C4.59665 53.634 3.03557 53.0589 1.80314 51.8265C-0.579562 49.4437 -0.579562 45.5 1.80314 43.1173L42.9664 1.95402C45.3491 -0.428683 49.2929 -0.428683 51.6756 1.95402C54.0583 4.33672 54.0583 8.28051 51.6756 10.6632L10.5123 51.8265C9.36206 52.9767 7.71882 53.634 6.15773 53.634Z" fill="#E1E1E1"/>
<path d="M145.838 53.6329H6.16216C2.79351 53.6329 0 50.8394 0 47.4708C0 44.1021 2.79351 41.3086 6.16216 41.3086H145.838C149.206 41.3086 152 44.1021 152 47.4708C152 50.8394 149.206 53.6329 145.838 53.6329Z" fill="#E1E1E1"/>
</svg>
