<svg width="122" height="111" viewBox="0 0 122 111" fill="none" xmlns="http://www.w3.org/2000/svg">
<path d="M101.432 72.263C103.538 67.0755 104.681 61.5219 104.681 55.419C104.681 51.0249 104.019 46.8139 102.876 42.908C98.9653 43.8235 94.874 44.3117 90.6022 44.3117C81.8538 44.3212 73.2313 42.1972 65.4617 38.1186C57.6921 34.04 51.0031 28.1265 45.9585 20.8765C40.5621 34.1209 30.3821 44.7743 17.4997 50.6587C17.259 52.1844 17.259 53.8322 17.259 55.419C17.259 61.2455 18.3904 67.0149 20.5886 72.3979C22.7868 77.7809 26.0087 82.672 30.0705 86.792C38.2735 95.1126 49.3993 99.7871 61.0002 99.7871C67.3177 99.7871 73.3945 98.3834 78.8697 95.8812C82.2992 102.533 83.8635 105.829 83.7432 105.829C73.8758 109.186 66.2347 110.833 61.0002 110.833C46.4398 110.833 32.5413 105.036 22.313 94.5996C16.0917 88.3086 11.4672 80.5813 8.83566 72.0799H0.833496V44.3117H7.39166C9.37862 34.5014 13.9468 25.4196 20.6114 18.0301C27.2761 10.6406 35.7886 5.21898 45.2457 2.34056C54.7028 -0.537869 64.7518 -0.765738 74.3263 1.68113C83.9007 4.12799 92.6436 9.15832 99.6272 16.2383C107.21 23.899 112.381 33.6688 114.488 44.3117H121.167V72.0799H120.806L99.3865 92.0364L67.4982 88.3746V78.1828H96.5587L101.432 72.263ZM44.5747 54.0153C46.3797 54.0153 48.1245 54.7477 49.388 56.0903C50.6578 57.3888 51.3703 59.1437 51.3703 60.9726C51.3703 62.8016 50.6578 64.5564 49.388 65.8549C48.1245 67.1365 46.3797 67.8689 44.5747 67.8689C40.7842 67.8689 37.7157 64.8174 37.7157 60.9726C37.7157 57.1278 40.7842 54.0153 44.5747 54.0153ZM77.3655 54.0153C81.156 54.0153 84.1643 57.1278 84.1643 60.9726C84.1643 64.8174 81.156 67.8689 77.3655 67.8689C73.575 67.8689 70.5065 64.8174 70.5065 60.9726C70.5065 59.1274 71.2291 57.3578 72.5154 56.0531C73.8018 54.7483 75.5464 54.0153 77.3655 54.0153Z" fill="#E1E1E1"/>
</svg>
