<svg width="160" height="160" viewBox="0 0 160 160" fill="none" xmlns="http://www.w3.org/2000/svg">
<g filter="url(#filter0_d_1_270)">
<path d="M107.708 103.709V115.584H50.3127C45.5885 115.584 41.0578 113.707 37.7173 110.366C34.3768 107.026 32.5002 102.495 32.5002 97.7712C32.5002 93.047 34.3768 88.5163 37.7173 85.1758C41.0578 81.8353 45.5885 79.9587 50.3127 79.9587H52.2918V72.042H50.3127C43.4889 72.042 36.9445 74.7527 32.1194 79.5779C27.2942 84.403 24.5835 90.9474 24.5835 97.7712C24.5835 104.595 27.2942 111.139 32.1194 115.964C36.9445 120.79 43.4889 123.5 50.3127 123.5H107.708V135.375H139.375V103.709H107.708ZM131.458 127.459H115.625V111.625H131.458V127.459Z" fill="#E1E1E1"/>
<path d="M99.7918 99.75H91.8752V87.875H68.1252V99.75H60.2085V87.875C60.2106 85.776 61.0453 83.7636 62.5295 82.2794C64.0138 80.7952 66.0262 79.9604 68.1252 79.9583H91.8752C93.9741 79.9604 95.9866 80.7952 97.4708 82.2794C98.955 83.7636 99.7897 85.776 99.7918 87.875V99.75ZM80.0002 76C77.6515 76 75.3556 75.3035 73.4028 73.9987C71.4499 72.6939 69.9279 70.8392 69.0291 68.6694C68.1303 66.4995 67.8951 64.1118 68.3533 61.8083C68.8115 59.5048 69.9425 57.3889 71.6033 55.7281C73.264 54.0674 75.3799 52.9364 77.6835 52.4782C79.987 52.02 82.3747 52.2551 84.5445 53.1539C86.7144 54.0527 88.569 55.5748 89.8739 57.5276C91.1787 59.4804 91.8752 61.7764 91.8752 64.125C91.872 67.2735 90.6199 70.2921 88.3936 72.5184C86.1673 74.7447 83.1486 75.9969 80.0002 76ZM80.0002 60.1667C79.2173 60.1667 78.452 60.3988 77.801 60.8338C77.1501 61.2687 76.6427 61.8869 76.3431 62.6102C76.0435 63.3335 75.9652 64.1294 76.1179 64.8972C76.2706 65.6651 76.6476 66.3704 77.2012 66.924C77.7548 67.4776 78.4601 67.8545 79.2279 68.0073C79.9958 68.16 80.7917 68.0816 81.5149 67.782C82.2382 67.4824 82.8565 66.9751 83.2914 66.3241C83.7263 65.6732 83.9585 64.9079 83.9585 64.125C83.9574 63.0755 83.5401 62.0693 82.798 61.3272C82.0559 60.5851 81.0497 60.1677 80.0002 60.1667Z" fill="#E1E1E1"/>
<path d="M109.688 28.5H52.2917V16.625H20.625V48.2917H52.2917V36.4167H109.688C114.412 36.4167 118.942 38.2933 122.283 41.6338C125.623 44.9743 127.5 49.505 127.5 54.2292C127.5 58.9533 125.623 63.484 122.283 66.8245C118.942 70.165 114.412 72.0417 109.688 72.0417H107.708V79.9583H109.688C116.511 79.9583 123.056 77.2476 127.881 72.4224C132.706 67.5973 135.417 61.053 135.417 54.2292C135.417 47.4054 132.706 40.8611 127.881 36.0359C123.056 31.2107 116.511 28.5 109.688 28.5ZM44.375 40.375H28.5417V24.5417H44.375V40.375Z" fill="#E1E1E1"/>
</g>
<defs>
<filter id="filter0_d_1_270" x="-12" y="-12" width="184" height="184" filterUnits="userSpaceOnUse" color-interpolation-filters="sRGB">
<feFlood flood-opacity="0" result="BackgroundImageFix"/>
<feColorMatrix in="SourceAlpha" type="matrix" values="0 0 0 0 0 0 0 0 0 0 0 0 0 0 0 0 0 0 127 0" result="hardAlpha"/>
<feOffset dy="4"/>
<feGaussianBlur stdDeviation="8"/>
<feComposite in2="hardAlpha" operator="out"/>
<feColorMatrix type="matrix" values="0 0 0 0 0 0 0 0 0 0 0 0 0 0 0 0 0 0 0.24 0"/>
<feBlend mode="normal" in2="BackgroundImageFix" result="effect1_dropShadow_1_270"/>
<feBlend mode="normal" in="SourceGraphic" in2="effect1_dropShadow_1_270" result="shape"/>
</filter>
</defs>
</svg>
