<svg width="152" height="140" viewBox="0 0 152 140" fill="none" xmlns="http://www.w3.org/2000/svg">
<path d="M131.273 0.333008H62.1818C56.6846 0.333008 51.4125 2.53497 47.5254 6.45448C43.6383 10.374 41.4545 15.69 41.4545 21.233V69.9997C41.4545 75.5427 43.6383 80.8587 47.5254 84.7782C51.4125 88.6977 56.6846 90.8997 62.1818 90.8997H131.273C136.77 90.8997 142.042 88.6977 145.929 84.7782C149.816 80.8587 152 75.5427 152 69.9997V21.233C152 15.69 149.816 10.374 145.929 6.45448C142.042 2.53497 136.77 0.333008 131.273 0.333008ZM138.182 69.9997C138.182 71.8474 137.454 73.6194 136.158 74.9259C134.862 76.2324 133.105 76.9663 131.273 76.9663H62.1818C60.3494 76.9663 58.5921 76.2324 57.2964 74.9259C56.0006 73.6194 55.2727 71.8474 55.2727 69.9997V21.233C55.2727 19.3853 56.0006 17.6133 57.2964 16.3068C58.5921 15.0003 60.3494 14.2663 62.1818 14.2663H131.273C133.105 14.2663 134.862 15.0003 136.158 16.3068C137.454 17.6133 138.182 19.3853 138.182 21.233V69.9997ZM114 42.133C111.442 42.1417 108.979 43.1103 107.091 44.85C105.605 43.4884 103.759 42.5912 101.777 42.2675C99.7956 41.9438 97.7632 42.2075 95.9272 43.0265C94.0912 43.8456 92.5306 45.1848 91.4352 46.8813C90.3398 48.5778 89.7566 50.5586 89.7566 52.583C89.7566 54.6074 90.3398 56.5882 91.4352 58.2848C92.5306 59.9813 94.0912 61.3204 95.9272 62.1395C97.7632 62.9586 99.7956 63.2223 101.777 62.8985C103.759 62.5748 105.605 61.6776 107.091 60.316C108.339 61.4594 109.844 62.2787 111.477 62.7026C113.11 63.1266 114.82 63.1425 116.46 62.749C118.101 62.3555 119.621 61.5644 120.889 60.4443C122.158 59.3243 123.136 57.9091 123.739 56.3216C124.342 54.7341 124.552 53.0222 124.351 51.3343C124.149 49.6464 123.543 48.0336 122.583 46.6357C121.624 45.2378 120.34 44.0971 118.845 43.3124C117.349 42.5278 115.686 42.1229 114 42.133ZM103.636 104.833C101.804 104.833 100.047 105.567 98.7509 106.873C97.4552 108.18 96.7273 109.952 96.7273 111.8V118.766C96.7273 120.614 95.9994 122.386 94.7036 123.693C93.4079 124.999 91.6506 125.733 89.8182 125.733H20.7273C18.8949 125.733 17.1375 124.999 15.8418 123.693C14.5461 122.386 13.8182 120.614 13.8182 118.766V90.8997H20.7273C22.5597 90.8997 24.317 90.1657 25.6127 88.8592C26.9084 87.5527 27.6364 85.7807 27.6364 83.933C27.6364 82.0853 26.9084 80.3133 25.6127 79.0068C24.317 77.7003 22.5597 76.9663 20.7273 76.9663H13.8182V69.9997C13.8182 68.152 14.5461 66.38 15.8418 65.0735C17.1375 63.767 18.8949 63.033 20.7273 63.033C22.5597 63.033 24.317 62.299 25.6127 60.9925C26.9084 59.686 27.6364 57.914 27.6364 56.0663C27.6364 54.2187 26.9084 52.4467 25.6127 51.1402C24.317 49.8337 22.5597 49.0997 20.7273 49.0997C15.2301 49.0997 9.958 51.3016 6.07088 55.2211C2.18376 59.1407 0 64.4567 0 69.9997V118.766C0 124.309 2.18376 129.625 6.07088 133.545C9.958 137.464 15.2301 139.666 20.7273 139.666H89.8182C95.3154 139.666 100.587 137.464 104.475 133.545C108.362 129.625 110.545 124.309 110.545 118.766V111.8C110.545 109.952 109.818 108.18 108.522 106.873C107.226 105.567 105.469 104.833 103.636 104.833ZM34.5455 111.8H41.4545C43.2869 111.8 45.0443 111.066 46.34 109.759C47.6357 108.453 48.3636 106.681 48.3636 104.833C48.3636 102.985 47.6357 101.213 46.34 99.9068C45.0443 98.6003 43.2869 97.8663 41.4545 97.8663H34.5455C32.7131 97.8663 30.9557 98.6003 29.66 99.9068C28.3643 101.213 27.6364 102.985 27.6364 104.833C27.6364 106.681 28.3643 108.453 29.66 109.759C30.9557 111.066 32.7131 111.8 34.5455 111.8Z" fill="#E1E1E1"/>
</svg>
