<svg width="122" height="122" viewBox="0 0 122 122" fill="none" xmlns="http://www.w3.org/2000/svg">
<path d="M113.484 67.1038C118.065 64.2863 121.128 59.2295 121.128 53.4682C121.128 47.7761 118.138 42.7722 113.648 39.9353L51.5164 3.60202L51.5223 3.61956C48.4862 1.85134 44.962 0.833008 41.2028 0.833008C32.1693 0.833008 24.4821 6.68736 21.7231 14.7995C21.6206 15.101 1.65781 89.2202 1.52081 89.8145L1.5197 89.8189L1.51998 89.8186C1.09532 91.6648 0.870605 93.5865 0.870605 95.5597C0.870605 109.679 12.3577 121.166 26.477 121.166C31.323 121.166 35.8583 119.812 39.7261 117.464C40.0592 117.262 113.395 67.1584 113.484 67.1038ZM101.662 69.0859L50.6877 103.9C51.5913 101.284 52.0834 98.4785 52.0834 95.56C52.0834 81.4406 40.5963 69.9536 26.477 69.9536C20.5107 69.9536 15.0147 72.005 10.6565 75.439L22.6955 30.3885C26.0365 37.2456 33.0762 41.9822 41.2028 41.9822C52.5478 41.9822 61.7774 32.7524 61.7774 21.4076C61.7774 19.0814 61.3837 16.8467 60.6689 14.7594L100.62 38.1183C93.9855 40.0703 89.1272 46.2106 89.1272 53.4679C89.1275 61.1005 94.5007 67.4978 101.662 69.0859ZM105.128 64.4559C99.0691 64.4559 94.1398 59.5266 94.1398 53.4679C94.1398 47.4089 99.0691 42.4798 105.128 42.4798C111.187 42.4798 116.116 47.4091 116.116 53.4679C116.116 59.5269 111.187 64.4559 105.128 64.4559ZM41.2028 5.8453C49.7838 5.8453 56.7651 12.8266 56.7651 21.4076C56.7651 29.9886 49.7838 36.9699 41.2028 36.9699C32.6218 36.9699 25.6405 29.9886 25.6405 21.4076C25.6405 12.8266 32.6215 5.8453 41.2028 5.8453ZM5.88289 95.56C5.88289 84.2043 15.1214 74.9659 26.477 74.9659C37.8326 74.9659 47.0711 84.2043 47.0711 95.56C47.0711 106.916 37.8326 116.154 26.477 116.154C15.1214 116.154 5.88289 106.916 5.88289 95.56Z" fill="#E1E1E1"/>
</svg>
