<svg xmlns="http://www.w3.org/2000/svg" viewBox="0 0 20.7 23.89"><defs><style>.cls-1{fill:#fff;}</style></defs><title>account-sales-Asset 4</title><g id="Layer_2" data-name="Layer 2"><g id="Layer_3" data-name="Layer 3"><path class="cls-1" d="M1,7.82a7.51,7.51,0,0,1,1.49-2A10.62,10.62,0,0,1,6.72,3.46,18.45,18.45,0,0,1,8.63,3a.53.53,0,0,0,.42-.5V.27c0-.24.17-.34.37-.22l8.13,4.58c.21.11.21.3,0,.42L9.34,9.67c-.21.12-.37,0-.37-.21L9,7.34a.45.45,0,0,0-.43-.44c-.39,0-.77,0-1.16,0A7.8,7.8,0,0,0,4,7.81,5.72,5.72,0,0,0,1.65,10.5a7.17,7.17,0,0,0-.8,2.88c0,.25-.35.24-.49.22a.27.27,0,0,1-.23-.22A8.52,8.52,0,0,1,.2,10.05,8.62,8.62,0,0,1,1,7.82Zm18.8,8.25a7.37,7.37,0,0,1-1.48,2A10.75,10.75,0,0,1,14,20.44c-.64.19-1.28.35-1.91.48a.54.54,0,0,0-.42.51v2.2c0,.23-.17.33-.38.22L3.14,19.27c-.21-.12-.21-.31,0-.42l8.22-4.63c.21-.11.37,0,.37.22v2.11a.43.43,0,0,0,.42.44,11.18,11.18,0,0,0,1.16,0,7.7,7.7,0,0,0,3.41-.89,5.66,5.66,0,0,0,2.34-2.69,7,7,0,0,0,.8-2.88c0-.24.36-.24.5-.22a.26.26,0,0,1,.22.23,8.28,8.28,0,0,1-.07,3.32A8.5,8.5,0,0,1,19.75,16.07Z"/></g></g></svg>