<svg xmlns="http://www.w3.org/2000/svg" viewBox="0 0 58.18 41.98"><defs><style>.cls-1{fill:#231f20;}.cls-2{fill:#bddade;}</style></defs><title>master-Asset 5</title><g id="Layer_2" data-name="Layer 2"><g id="Layer_3" data-name="Layer 3"><path class="cls-1" d="M4.14,13.94V39h20.7V18.47h8.6V39h20.7v-25ZM22.46,32.69H6.26V18.47h16.2Zm29.57,0H35.83V18.47H52Z"/><path class="cls-2" d="M.38,14a3.18,3.18,0,1,0,6.36,0Z"/><path d="M3.56,17.5A3.47,3.47,0,0,1,.09,14a.29.29,0,0,1,.29-.29H6.74A.29.29,0,0,1,7,14,3.47,3.47,0,0,1,3.56,17.5ZM.68,14.32a2.9,2.9,0,0,0,5.76,0Z"/><path class="cls-2" d="M6.74,14a3.19,3.19,0,0,0,6.37,0Z"/><path d="M9.92,17.5A3.48,3.48,0,0,1,6.45,14a.29.29,0,0,1,.29-.29h6.37a.29.29,0,0,1,.29.29A3.48,3.48,0,0,1,9.92,17.5ZM7.05,14.32a2.89,2.89,0,0,0,5.75,0Z"/><path class="cls-2" d="M19.47,14a3.19,3.19,0,0,0,6.37,0Z"/><path d="M22.65,17.5A3.48,3.48,0,0,1,19.18,14a.29.29,0,0,1,.29-.29h6.37a.29.29,0,0,1,.29.29A3.48,3.48,0,0,1,22.65,17.5Zm-2.87-3.18a2.89,2.89,0,0,0,5.75,0Z"/><path class="cls-2" d="M25.84,14a3.18,3.18,0,0,0,6.36,0Z"/><path d="M29,17.5A3.48,3.48,0,0,1,25.54,14a.29.29,0,0,1,.3-.29H32.2a.29.29,0,0,1,.29.29A3.48,3.48,0,0,1,29,17.5Zm-2.88-3.18a2.89,2.89,0,0,0,5.75,0Z"/><path class="cls-2" d="M13.11,14a3.18,3.18,0,0,0,6.36,0Z"/><path d="M16.29,17.5A3.48,3.48,0,0,1,12.81,14a.29.29,0,0,1,.3-.29h6.36a.29.29,0,0,1,.29.29A3.48,3.48,0,0,1,16.29,17.5Zm-2.88-3.18a2.89,2.89,0,0,0,5.75,0Z"/><path d="M13.11,14.32H6.74a.27.27,0,0,1-.22-.11A.26.26,0,0,1,6.46,14L9.24.23A.28.28,0,0,1,9.52,0h5.09a.32.32,0,0,1,.22.1.29.29,0,0,1,.07.22L13.4,14.06A.29.29,0,0,1,13.11,14.32Zm-6-.58h5.74L14.29.58H9.76Z"/><path d="M25.84,14.32H19.47a.29.29,0,0,1-.21-.09.3.3,0,0,1-.08-.21L19.93.29A.29.29,0,0,1,20.22,0h6.07a.29.29,0,0,1,.21.09.35.35,0,0,1,.08.22L26.13,14A.29.29,0,0,1,25.84,14.32Zm-6.07-.58h5.79L26,.58H20.51Z"/><path d="M19.47,14.32H13.11a.29.29,0,0,1-.22-.1.26.26,0,0,1-.07-.22L14.32.26A.29.29,0,0,1,14.61,0h5.53a.29.29,0,0,1,.21.09.35.35,0,0,1,.08.22L19.76,14A.29.29,0,0,1,19.47,14.32Zm-6-.58h5.76L19.83.58h-5Z"/><path d="M6.74,14.32H.29a.27.27,0,0,1-.23-.12A.28.28,0,0,1,0,14L3.93.21A.3.3,0,0,1,4.21,0H9.52a.3.3,0,0,1,.23.11.32.32,0,0,1,.06.24L7,14.09A.3.3,0,0,1,6.74,14.32ZM.68,13.74H6.5L9.16.58H4.43Z"/><path class="cls-2" d="M57.8,14a3.19,3.19,0,0,1-6.37,0Z"/><path d="M54.62,17.5A3.48,3.48,0,0,1,51.14,14a.29.29,0,0,1,.29-.29H57.8a.29.29,0,0,1,.29.29A3.48,3.48,0,0,1,54.62,17.5Zm-2.88-3.18a2.89,2.89,0,0,0,5.75,0Z"/><path class="cls-2" d="M51.43,14a3.18,3.18,0,1,1-6.36,0Z"/><path d="M48.25,17.5A3.48,3.48,0,0,1,44.78,14a.29.29,0,0,1,.29-.29h6.36a.29.29,0,0,1,.3.29A3.48,3.48,0,0,1,48.25,17.5Zm-2.87-3.18a2.89,2.89,0,0,0,5.75,0Z"/><path class="cls-2" d="M38.71,14a3.19,3.19,0,0,1-6.37,0Z"/><path d="M35.52,17.5A3.48,3.48,0,0,1,32.05,14a.29.29,0,0,1,.29-.29h6.37A.29.29,0,0,1,39,14,3.48,3.48,0,0,1,35.52,17.5Zm-2.87-3.18a2.89,2.89,0,0,0,5.75,0Z"/><path class="cls-2" d="M45.07,14a3.18,3.18,0,0,1-6.36,0Z"/><path d="M41.89,17.5A3.48,3.48,0,0,1,38.41,14a.29.29,0,0,1,.3-.29h6.36a.29.29,0,0,1,.29.29A3.48,3.48,0,0,1,41.89,17.5ZM39,14.32a2.89,2.89,0,0,0,5.75,0Z"/><path d="M51.43,14.32H45.07a.29.29,0,0,1-.29-.26L43.27.32A.27.27,0,0,1,43.35.1a.28.28,0,0,1,.21-.1h5.1a.3.3,0,0,1,.28.23L51.72,14a.26.26,0,0,1-.06.24A.3.3,0,0,1,51.43,14.32Zm-6.1-.58h5.75L48.42.58H43.89Z"/><path d="M38.71,14.32H32.34a.29.29,0,0,1-.29-.28L31.6.31a.27.27,0,0,1,.08-.22A.27.27,0,0,1,31.89,0H38a.29.29,0,0,1,.29.29L39,14a.27.27,0,0,1-.09.21A.27.27,0,0,1,38.71,14.32Zm-6.09-.58h5.79L37.67.58H32.2Z"/><path d="M45.07,14.32H38.71a.3.3,0,0,1-.3-.28L37.75.31a.27.27,0,0,1,.08-.22A.27.27,0,0,1,38,0h5.52a.28.28,0,0,1,.29.26L45.36,14a.29.29,0,0,1-.07.22A.32.32,0,0,1,45.07,14.32ZM39,13.74h5.76L43.3.58H38.35Z"/><path d="M57.88,14.32H51.43a.3.3,0,0,1-.28-.23L48.37.35a.26.26,0,0,1,.06-.24A.28.28,0,0,1,48.66,0H54a.29.29,0,0,1,.28.21L58.16,14a.28.28,0,0,1,0,.25A.29.29,0,0,1,57.88,14.32Zm-6.21-.58H57.5L53.74.58H49Z"/><path d="M32.2,14.32H25.84a.27.27,0,0,1-.21-.09.29.29,0,0,1-.09-.21L25.94.28A.29.29,0,0,1,26.23,0H31.8a.3.3,0,0,1,.3.28L32.49,14s0,0,0,.07A.29.29,0,0,1,32.2,14.32Zm-6.06-.58H31.9L31.52.58h-5Z"/><path d="M56.12,42H2.06a.29.29,0,0,1-.3-.29V39a.29.29,0,0,1,.3-.3H56.12a.29.29,0,0,1,.29.3v2.73A.29.29,0,0,1,56.12,42ZM2.35,41.4H55.83V39.25H2.35Z"/><path d="M31.6,29.52a.87.87,0,1,1,.87-.87A.87.87,0,0,1,31.6,29.52Zm0-1.16a.29.29,0,1,0,0,.57.29.29,0,0,0,0-.57Z"/></g></g></svg>