<svg xmlns="http://www.w3.org/2000/svg" viewBox="0 0 40.91 50.57"><defs><style>.cls-1{fill:#231f20;fill-rule:evenodd;}</style></defs><title>dash-Asset 3</title><g id="Layer_2" data-name="Layer 2"><g id="Layer_3" data-name="Layer 3"><path class="cls-1" d="M38.75,50.57H2.16A2.16,2.16,0,0,1,0,48.41V37.07a2.19,2.19,0,0,1,2.16-2.16H10.7c0,2.16.09,4.31.09,6.38h19.5V34.91h8.46a2.2,2.2,0,0,1,2.16,2.16V48.41a2.17,2.17,0,0,1-2.16,2.16ZM18.47,10.05V6.56H15.62L20.45,0l4.84,6.56H22.44v3.49a.59.59,0,0,1-.6.61H19.07a.62.62,0,0,1-.6-.61Zm11.3,30.86V11.69H11V40.91ZM17.22,38.83a4.15,4.15,0,0,0-4.14-4.18V18a4.15,4.15,0,0,0,4.14-4.19h6.3A4.15,4.15,0,0,0,27.66,18v16.7a4.14,4.14,0,0,0-4.14,4.18Zm3.15-7.33a5.2,5.2,0,1,1,5.22-5.18,5.2,5.2,0,0,1-5.22,5.18ZM8.24,41.27H32.67v2.94H8.24Z"/></g></g></svg>