<svg xmlns="http://www.w3.org/2000/svg" viewBox="0 0 40.91 50.57"><defs><style>.cls-1{fill:#231f20;fill-rule:evenodd;}</style></defs><title>dash-Asset 2</title><g id="Layer_2" data-name="Layer 2"><g id="Layer_3" data-name="Layer 3"><path class="cls-1" d="M2.16,11.69H38.75a2.17,2.17,0,0,1,2.16,2.16V25.2a2.2,2.2,0,0,1-2.16,2.16H30.21c0-2.16-.09-4.32-.09-6.39H10.61v6.39H2.16A2.2,2.2,0,0,1,0,25.2V13.85a2.16,2.16,0,0,1,2.16-2.16ZM22.44.6V4.1h2.85l-4.84,6.56L15.62,4.1h2.85V.6a.59.59,0,0,1,.6-.6h2.76a.62.62,0,0,1,.61.6Zm7.33,50V21.36H11V50.57ZM17.22,48.5a4.16,4.16,0,0,0-4.14-4.19V27.62a4.16,4.16,0,0,0,4.14-4.19h6.3a4.15,4.15,0,0,0,4.14,4.19V44.31a4.15,4.15,0,0,0-4.14,4.19Zm3.15-7.34A5.2,5.2,0,1,1,25.59,36a5.2,5.2,0,0,1-5.22,5.17ZM8.24,18H32.67V21H8.24Z"/></g></g></svg>