<svg xmlns="http://www.w3.org/2000/svg" viewBox="0 0 16.67 23.89"><defs><style>.cls-1{fill:#fff;}</style></defs><title>delete-Asset 1</title><g id="Layer_2" data-name="Layer 2"><g id="Layer_3" data-name="Layer 3"><path class="cls-1" d="M14.59,3H2.08A2.16,2.16,0,0,0,0,5.23V6H16.67V5.23A2.16,2.16,0,0,0,14.59,3ZM11,1.49l.3,2.36H5.42l.3-2.36H11M11.11,0H5.56A1.27,1.27,0,0,0,4.37,1.11L4,4.23a.94.94,0,0,0,.9,1.11h7a.93.93,0,0,0,.9-1.11L12.3,1.11A1.27,1.27,0,0,0,11.11,0Zm3.82,7.47H1.74A1.31,1.31,0,0,0,.47,9L1.61,22.41a1.6,1.6,0,0,0,1.52,1.48H13.55a1.59,1.59,0,0,0,1.51-1.48L16.2,9A1.31,1.31,0,0,0,14.93,7.47ZM5.56,20.91H3.47L2.78,10.45H5.56Zm4.16,0H7V10.45H9.72Zm3.48,0H11.11V10.45h2.78Z"/></g></g></svg>