<svg xmlns="http://www.w3.org/2000/svg" viewBox="0 0 52.86 50.72"><defs><style>.cls-1{fill:#231f20;}</style></defs><title>dash-Asset 1</title><g id="Layer_2" data-name="Layer 2"><g id="Layer_3" data-name="Layer 3"><path class="cls-1" d="M11.13,13.21V48.83a1.22,1.22,0,0,0,1.81,1.07l2.71-1.48a1.22,1.22,0,0,1,1.17,0l3.94,2.15a1.22,1.22,0,0,0,1.17,0l3.93-2.15a1.27,1.27,0,0,1,1.17,0L31,50.57a1.24,1.24,0,0,0,1.18,0l3.92-2.14a1.24,1.24,0,0,1,1.18,0l2.69,1.47a1.23,1.23,0,0,0,1.81-1.08V13.21ZM23,27.94h-2.6A4.33,4.33,0,0,1,20,19.3v-.9a1.74,1.74,0,0,1,3.48,0v.86h2.17a1.74,1.74,0,0,1,0,3.48H20.43a.86.86,0,0,0,0,1.72H23a4.33,4.33,0,0,1,.44,8.64V34A1.74,1.74,0,0,1,20,34v-.86H17.83a1.74,1.74,0,0,1,0-3.48H23a.87.87,0,1,0,0-1.73ZM36.86,42.77H17.39a1.74,1.74,0,1,1,0-3.47H36.86a1.74,1.74,0,1,1,0,3.47Zm0-7H32.69a1.74,1.74,0,1,1,0-3.48h4.17a1.74,1.74,0,1,1,0,3.48Zm0-7H32.69a1.74,1.74,0,1,1,0-3.47h4.17a1.74,1.74,0,1,1,0,3.47Zm0-6.95H32.69a1.74,1.74,0,0,1,0-3.48h4.17a1.74,1.74,0,1,1,0,3.48Z"/><path class="cls-1" d="M47.3,0H5.56A5.56,5.56,0,0,0,0,5.56V15.3a5.57,5.57,0,0,0,5.56,5.57h.7a.71.71,0,0,0,.7-.7V10.43a.69.69,0,0,1,.69-.69H45.21a.69.69,0,0,1,.69.69v9.74a.71.71,0,0,0,.7.7h.7a5.57,5.57,0,0,0,5.56-5.57V5.56A5.56,5.56,0,0,0,47.3,0Z"/></g></g></svg>