<svg xmlns="http://www.w3.org/2000/svg" viewBox="0 0 17 11.07"><defs><style>.cls-1{fill:#231f20;}</style></defs><title>laporan-Asset 3</title><g id="Layer_2" data-name="Layer 2"><g id="Layer_3" data-name="Layer 3"><polygon class="cls-1" points="16.01 11.07 0.98 11.07 0.83 9.68 16.16 9.68 16.01 11.07"/><polygon class="cls-1" points="10.66 3.47 8.5 5.94 6.33 3.47 8.5 0 10.66 3.47"/><path class="cls-1" d="M11.88,9.81C8.31,6.11,9.7,4.15,9.7,4.15H7.3s1.38,2-2.18,5.66Z"/><polygon class="cls-1" points="6.01 4.7 4.42 6.62 2.62 4.7 4.17 2.06 6.01 4.7"/><path class="cls-1" d="M7.29,9.68c-3-2.93-2-4.45-2-4.45H3.4S4.58,6.75,1.9,9.68Z"/><path class="cls-1" d="M1.29,5.23a1.1,1.1,0,0,0-.12.53L2,4.7,0,2.05.35,5.23Z"/><path class="cls-1" d="M1.17,5.76.5,6.62.83,9.68h2.7C1.46,7.77,1.14,6.44,1.17,5.76Z"/><path class="cls-1" d="M.35,5.23.5,6.62l.67-.86a1.1,1.1,0,0,1,.12-.53Z"/><polygon class="cls-1" points="10.98 4.7 12.57 6.62 14.38 4.7 12.83 2.06 10.98 4.7"/><path class="cls-1" d="M9.7,9.68c3-2.93,2-4.45,2-4.45h1.88S12.42,6.75,15.1,9.68Z"/><path class="cls-1" d="M15.71,5.23a1.26,1.26,0,0,1,.12.53L15,4.7l2-2.65-.35,3.18Z"/><path class="cls-1" d="M15.83,5.76l.67.86-.34,3.06H13.47C15.53,7.77,15.85,6.44,15.83,5.76Z"/><path class="cls-1" d="M16.65,5.23,16.5,6.62l-.67-.86a1.26,1.26,0,0,0-.12-.53Z"/></g></g></svg>