<svg xmlns="http://www.w3.org/2000/svg" viewBox="0 0 44.31 44.11"><defs><style>.cls-1{fill:#231f20;}</style></defs><title>laporan-Asset 2</title><g id="Layer_2" data-name="Layer 2"><g id="Layer_3" data-name="Layer 3"><path class="cls-1" d="M36.46,4.8a18.61,18.61,0,0,0-12-4.68l-.11,17.2Z"/><path class="cls-1" d="M21.18,0C9,0,0,9.87,0,22.05A22.06,22.06,0,0,0,22.05,44.11c8.54,0,16.49-5,19.41-11.55L21.62,22.05V0Z"/><polygon class="cls-1" points="32.55 12.7 29.36 22.88 31.2 23.86 35.73 9.44 32.55 12.7"/><polygon class="cls-1" points="28.43 16.93 26.97 21.6 28.81 22.59 31.61 13.67 28.43 16.93"/><path class="cls-1" d="M41.51,10.81l-5,15.91,1.84,1,4.47-14.23A21.23,21.23,0,0,0,41.51,10.81Z"/><path class="cls-1" d="M43.18,14.39,38.91,28l1.84,1,3.37-10.74A19.33,19.33,0,0,0,43.18,14.39Z"/><path class="cls-1" d="M44.31,20.8c0-.34,0-.69,0-1l-3,9.5,1.08.58A19.76,19.76,0,0,0,44.31,20.8Z"/><path class="cls-1" d="M38.37,6.72l-1.7,1.75L31.74,24.16l1.84,1L39.12,7.51C38.88,7.24,38.63,7,38.37,6.72Z"/><polygon class="cls-1" points="24.94 20.52 26.42 21.31 27.49 17.9 24.94 20.52"/><path class="cls-1" d="M39.59,8.05,34.13,25.44l1.84,1,5.12-16.3A19.52,19.52,0,0,0,39.59,8.05Z"/></g></g></svg>