<svg xmlns="http://www.w3.org/2000/svg" viewBox="0 0 28.63 31.66"><defs><style>.cls-1{fill:#231f20;}.cls-1,.cls-2{fill-rule:evenodd;}.cls-2{fill:#fff;}</style></defs><title>laporan-Asset 1</title><g id="Layer_2" data-name="Layer 2"><g id="Layer_3" data-name="Layer 3"><polygon class="cls-1" points="0 19.36 0 19.36 0 31.66 12.3 31.66 12.3 19.36 0 19.36"/><path class="cls-1" d="M4.84,0H28.1a.38.38,0,0,1,.4.4l.13,6.72v19c0,.13-.26.33-.47.33h-15V24.6h2.89c.07,0,.07,0,.07-.07V21.11c0-.07,0-.14-.07-.14H13.17v-.74h2.89c.07,0,.07,0,.07-.06v-3.5a.07.07,0,0,0-.07-.07H11.43a.07.07,0,0,0-.07.07v1.81h-.81V16.6H5.85l-.07.07v1.81H4.43V7.12L4.37.4c0-.27.2-.4.47-.4Z"/><path class="cls-2" d="M23.12,8.47h0v2.22H26c.06,0,.06,0,.06-.07V8.54c0-.07,0-.07-.06-.07Z"/><path class="cls-2" d="M17.74,8.47h0a.06.06,0,0,0-.06.07v2.08a.06.06,0,0,0,.06.07h2.89V8.47Z"/><path class="cls-2" d="M12.44,8.47h0c-.07,0-.07,0-.07.07v2.08c0,.07,0,.07.07.07h2.75a.07.07,0,0,0,.07-.07V8.54a.07.07,0,0,0-.07-.07Z"/><path class="cls-2" d="M7,8.47H7v2.22H9.81c.07,0,.07,0,.07-.07V8.54c0-.07,0-.07-.07-.07Z"/><path class="cls-2" d="M6.59,1.07h0a.31.31,0,0,0-.34.27L6.12,5.71a.31.31,0,0,0,.26.34h20a.31.31,0,0,0,.27-.34l.21-4.37a.3.3,0,0,0-.27-.27Z"/><path class="cls-2" d="M22.52,16.6h0a.24.24,0,0,0-.14.07v7.8a.15.15,0,0,0,.14.13h4.57a.14.14,0,0,0,.13-.13v-7.8a.21.21,0,0,0-.13-.07Z"/><path class="cls-2" d="M17,21h0c-.06,0-.06.07-.06.14v3.42c0,.07,0,.07.06.07h4.64c.07,0,.07,0,.07-.07V21.11c0-.07,0-.14-.07-.14Z"/><path class="cls-2" d="M17,16.6h0c-.06,0-.06.07-.06.07v3.5c0,.06,0,.06.06.06h4.64c.07,0,.07,0,.07-.06v-3.5a.07.07,0,0,0-.07-.07Z"/><polygon class="cls-2" points="22.38 12.23 22.38 12.23 22.38 12.3 22.38 15.79 22.38 15.79 27.09 15.79 27.16 15.79 27.16 12.3 27.09 12.23 22.38 12.23"/><path class="cls-2" d="M17,12.23h0c-.06,0-.06.07-.06.07v3.5h4.77V12.3a.07.07,0,0,0-.07-.07Z"/><path class="cls-2" d="M11.43,12.23h0a.07.07,0,0,0-.07.07v3.5h4.77V12.3a.07.07,0,0,0-.07-.07Z"/><polygon class="cls-2" points="5.85 12.23 5.85 12.23 5.78 12.3 5.78 15.79 5.85 15.79 10.55 15.79 10.55 15.79 10.55 12.3 10.55 12.23 5.85 12.23"/><path class="cls-2" d="M3.56,24.06h0c0,1,.87,1.68,2.29,1.89v2C4.3,27.89,5.11,26.55,4,26.55a.6.6,0,0,0-.6.6c0,.74.81,1.75,2.42,1.82v.54c0,.13.13.33.27.33a.35.35,0,0,0,.33-.33V29c1.41-.14,2.36-.74,2.36-2.09S7.73,25.07,6.45,24.8V23c1.08,0,1.08,1.07,1.68,1.07a.55.55,0,0,0,.54-.6c0-.94-1.48-1.41-2.22-1.41v-.54a.32.32,0,0,0-.33-.34.31.31,0,0,0-.27.34v.54a2.05,2.05,0,0,0-2.29,2ZM6.45,28h0c.61-.07,1.15-.33,1.15-.94s-.68-.81-1.15-.94Zm-.6-3.29h0V23c-.61,0-1.08.4-1.08.8s.34.74,1.08.88Z"/></g></g></svg>