<svg xmlns="http://www.w3.org/2000/svg" viewBox="0 0 34.48 44.62"><defs><style>.cls-1{fill:#231f20;}</style></defs><title>account-sales-Asset 2</title><g id="Layer_2" data-name="Layer 2"><g id="Layer_3" data-name="Layer 3"><path class="cls-1" d="M14.45,2.83c-6.54.64-12.71,3.6-13,10.75-.31,8,6.39,10.39,13,12V34.5c-3.25-1.43-3.36-5.23-3.36-5.23L0,30.53c.85,7.78,7.57,10.66,14.45,11.11v3h2.32V0H14.45Zm0,13-.64-.29c-2.88-1.49-2.48-4.5.64-5.58Z"/><path class="cls-1" d="M31.39,22.57c-3.31-2.93-7.82-4.23-11.63-5.2V10.16a5.12,5.12,0,0,1,2.73,3.31l10.78-1.78c-1.22-5-6.47-8.27-13.51-8.89V0H17.89V44.62h1.88V41.54a23.64,23.64,0,0,0,9-2.43C34.53,35.65,36.83,27.39,31.39,22.57ZM19.76,34.78V27c2.65.92,3.56,1.79,4,3.29C24.26,32.1,23,34.1,19.76,34.78Z"/></g></g></svg>