<svg xmlns="http://www.w3.org/2000/svg" viewBox="0 0 41.73 42.24"><defs><style>.cls-1{fill:#231f20;}</style></defs><title>dash-Asset 5</title><g id="Layer_2" data-name="Layer 2"><g id="Layer_3" data-name="Layer 3"><path class="cls-1" d="M.64,30.65h4a.65.65,0,0,1,.64.65V37H36.46V31.3a.65.65,0,0,1,.64-.65h4a.65.65,0,0,1,.65.65V41.59a.65.65,0,0,1-.65.65H.64A.65.65,0,0,1,0,41.59V31.3A.65.65,0,0,1,.64,30.65Z"/><rect class="cls-1" x="13.87" width="13.99" height="4.9" rx="0.75"/><path class="cls-1" d="M29.39,23.76l-7.23,8.48a1.92,1.92,0,0,1-2.59,0l-7.24-8.48L5.1,15.29c-.57-.68.15-1.52,1.3-1.52H14v-7a.65.65,0,0,1,.65-.65H27.32a.65.65,0,0,1,.64.65v7h7.37c1.15,0,1.87.84,1.29,1.52Z"/></g></g></svg>