<svg xmlns="http://www.w3.org/2000/svg" viewBox="0 0 50.87 50.72"><defs><style>.cls-1{fill:#231f20;}</style></defs><title>master-Asset 1</title><g id="Layer_2" data-name="Layer 2"><g id="Layer_3" data-name="Layer 3"><path class="cls-1" d="M34,30.79l2.11-4.43a.73.73,0,0,0-.36-1,.7.7,0,0,0-.67,0l-3,1.92,2.22-3.55a.73.73,0,0,0-.92-1.06l-4.74,2.41,2-4a.72.72,0,0,0-.33-1,.69.69,0,0,0-.67,0l-3.62,2L28.31,18a.72.72,0,0,0-1-1l-3.24,2.07-4.81,4.81-2.07,3.24a.73.73,0,0,0,.23,1,.71.71,0,0,0,.73,0l4.18-2.32-2,3.62a.74.74,0,0,0,.29,1,.75.75,0,0,0,.67,0l4-2-2.41,4.74a.71.71,0,0,0,.26,1,.74.74,0,0,0,.82-.05l3.55-2.22-1.91,3a.73.73,0,0,0,.93,1l4.4-2.12-2.34,4.9,3.12-3.13L33,32.87l2.76-1.31,3.07-3.08ZM20,25.52,22.19,22l3.49-2.25-2,3.7Zm2.8,2.6,2-3.56,3.56-2-1.88,3.67Zm2.61,3.39,2.11-4.16,4.18-2.13L29.22,29.1Zm6.55.27-3.77,1.81,2.16-3.45L33.75,28Z"/><path class="cls-1" d="M24.17,14.23l-8.82-8.8a1.67,1.67,0,0,0-2.36,0h0l-1.7,1.7a.73.73,0,0,1-1,0,.7.7,0,0,1-.16-.65,5.14,5.14,0,1,0-3.71,3.66h0a.73.73,0,0,1,.93.45.74.74,0,0,1-.17.75L5.42,13a1.69,1.69,0,0,0,0,2.36l8.82,8.82a1.72,1.72,0,0,0,1.18.5,2.12,2.12,0,0,0,1.17-.5l7.58-7.57A1.69,1.69,0,0,0,24.17,14.23Zm-19-5.86a3.25,3.25,0,0,1-2.3-5.55h0a3.25,3.25,0,1,1,2.3,5.55Z"/><path class="cls-1" d="M50,45.79h0a2.89,2.89,0,1,0,0,4.08A2.88,2.88,0,0,0,50,45.79Zm-.81,3.29v0a1.75,1.75,0,1,1-2.5-2.44,1.75,1.75,0,0,1,3,1.21A1.74,1.74,0,0,1,49.21,49.08Z"/><path class="cls-1" d="M45,33.69l-4.22-4.22a.62.62,0,0,0-.86,0L29.59,39.78a.63.63,0,0,0-.17.43.62.62,0,0,0,.18.43l4.21,4.21a.6.6,0,0,0,.86,0L37.5,42,45,34.55a.58.58,0,0,0,.18-.43Z"/><path class="cls-1" d="M42.68,38.92,39,42.56l4.65,4.65a4.29,4.29,0,0,1,1.22-2.42h0a4.29,4.29,0,0,1,2.42-1.22Z"/></g></g></svg>