<svg xmlns="http://www.w3.org/2000/svg" viewBox="0 0 44.22 34.7"><defs><style>.cls-1{fill:#231f20;}</style></defs><title>pembelian-Asset 5</title><g id="Layer_2" data-name="Layer 2"><g id="Layer_3" data-name="Layer 3"><path class="cls-1" d="M43.68,23,32.52,34.16a1.87,1.87,0,0,1-1.31.54,1.83,1.83,0,0,1-1.3-.54,1.85,1.85,0,0,1,0-2.6l8.22-8.22H19.65a1.84,1.84,0,1,1,0-3.67H37.76l-8.22-8.22a1.84,1.84,0,1,1,2.6-2.6L43.68,20.39A1.83,1.83,0,0,1,43.68,23ZM.54,14.68,11.7,25.85a1.84,1.84,0,0,0,2.6-2.6L6.09,15H24.57a1.84,1.84,0,1,0,0-3.68H6.46l8.22-8.21a1.84,1.84,0,0,0-2.6-2.6L.54,12.08A1.83,1.83,0,0,0,.54,14.68Z"/></g></g></svg>