<svg xmlns="http://www.w3.org/2000/svg" viewBox="0 0 49.63 50.35"><defs><style>.cls-1{fill:#231f20;}</style></defs><title>master-Asset 6</title><g id="Layer_2" data-name="Layer 2"><g id="Layer_3" data-name="Layer 3"><path class="cls-1" d="M24.81,41.64C11.12,41.64,0,45.54,0,50.35H49.62C49.62,45.54,38.51,41.64,24.81,41.64Z"/><path class="cls-1" d="M24.82,42.54A19.64,19.64,0,1,1,44.45,22.9,19.66,19.66,0,0,1,24.82,42.54Zm0-37.48A17.84,17.84,0,1,0,42.66,22.9,17.86,17.86,0,0,0,24.82,5.06Z"/><path class="cls-1" d="M24.82,4.16C14.66,4.16,6.42,12,6.42,21.55c0,.06,0,.11,0,.17a20.21,20.21,0,0,0,9,2.08,19.58,19.58,0,0,0,16.93-9.42c2.52,5.4,6.37,9,10.73,9.38a16.19,16.19,0,0,0,.17-2.21C43.21,12,35,4.16,24.82,4.16Z"/><path class="cls-1" d="M20.22,25.32c0,1.77-.85,3.2-1.9,3.2s-1.91-1.43-1.91-3.2.85-3.21,1.91-3.21S20.22,23.55,20.22,25.32Z"/><path class="cls-1" d="M33.22,25.32c0,1.77-.85,3.2-1.91,3.2s-1.9-1.43-1.9-3.2.85-3.21,1.9-3.21S33.22,23.55,33.22,25.32Z"/><path class="cls-1" d="M19.36,34.86c-6.2,0-11.46-.34-14.58-3.44-1.93-1.91-2.86-4.7-2.86-8.52a22.9,22.9,0,1,1,45.79,0,.9.9,0,1,1-1.79,0,21.11,21.11,0,0,0-42.21,0c0,3.32.77,5.69,2.33,7.25,3,3,9,2.94,15.93,2.9l2.85,0a.9.9,0,0,1,0,1.8H22Z"/><path class="cls-1" d="M45,13.74V33.85c2.59,0,4.68-4.5,4.68-10S47.54,13.74,45,13.74Z"/><path class="cls-1" d="M4.68,33V12.84C2.1,12.84,0,17.35,0,22.9S2.1,33,4.68,33Z"/><path class="cls-1" d="M28.66,34c0,1-1.72,1.82-3.84,1.82S21,35,21,34s1.72-1.82,3.85-1.82S28.66,33,28.66,34Z"/></g></g></svg>