<svg xmlns="http://www.w3.org/2000/svg" viewBox="0 0 22.73 23.89"><defs><style>.cls-1{fill:#fff;}.cls-2{fill:#aa1f25;}</style></defs><title>trx-Asset 5</title><g id="Layer_2" data-name="Layer 2"><g id="Layer_3" data-name="Layer 3"><path class="cls-1" d="M0,22a1.89,1.89,0,0,0,1.9,1.89H20.83A1.9,1.9,0,0,0,22.73,22s0-17.15,0-17.41a1.35,1.35,0,0,0-.36-1l-3-3A2.34,2.34,0,0,0,17.89,0h-16A1.89,1.89,0,0,0,0,1.9ZM16.94,1.17V7.64a1.2,1.2,0,0,1-1.14,1.1H7.58a1.16,1.16,0,0,1-1.09-1.1V1.18Z"/><rect class="cls-1" x="12.35" y="2.17" width="3.43" height="5.59" rx="0.64"/><path class="cls-2" d="M19.54,22H3.19v-9a1.21,1.21,0,0,1,1.18-1.24h14a1.22,1.22,0,0,1,1.18,1.24Z"/></g></g></svg>