<svg xmlns="http://www.w3.org/2000/svg" viewBox="0 0 21.81 17.16"><defs><style>.cls-1{fill:#fff;fill-rule:evenodd;}</style></defs><title>sidebar-Asset 7</title><g id="Layer_2" data-name="Layer 2"><g id="Layer_3" data-name="Layer 3"><path class="cls-1" d="M11.61,16.79,20.73,14c1.16-.52,1.31-1,.82-1.46a3.26,3.26,0,0,0-3.24-.4c-.55.15-3.89.75-4.67.81l-1,.08h0a1.76,1.76,0,0,1-1.12,1.87.73.73,0,0,1-.67,0h0l-.18-.07-3.24-1.3,3.32,1.12.17.07h0a.57.57,0,0,0,.53,0,1.59,1.59,0,0,0,1-1.7c0-.36-.36-.55-.66-.73a4.7,4.7,0,0,0-2.32-.52l-.18,0c-.25,0-.53,0-.76,0l-.67-.1A2.13,2.13,0,0,1,7,11l-.22-.19a3.82,3.82,0,0,0-2.84-.67v4.7l4.59,1.94a3.46,3.46,0,0,0,3.12,0Zm-.68-2.6h0l-.82-.28a5.59,5.59,0,0,1,.11-.59c.09-.35.23-.76.29-1.14a2.18,2.18,0,0,1,1.12.4c.15.09.45.25.47.44a1.87,1.87,0,0,1-.05.58,1,1,0,0,1-.66.69c-.13,0-.12,0-.25,0l-.05,0-.07,0,0,0Z"/><path class="cls-1" d="M3.55,15.07V9.34a.4.4,0,0,0-.4-.4H.42a.4.4,0,0,0-.4.4l0,6.26a.4.4,0,0,0,.4.4H3.14a.4.4,0,0,0,.4-.4v-.53ZM2.1,10.57v.61a.32.32,0,0,1-.32.32.33.33,0,0,1-.31-.32v-.62a.32.32,0,1,1,.63,0Z"/><path class="cls-1" d="M10.54,2.82a2.83,2.83,0,1,0-.83,2,2.8,2.8,0,0,0,.83-2Zm-2.08.67a.69.69,0,0,1-.2.54.54.54,0,0,1-.3.15v.19H7.61v-.2a.57.57,0,0,1-.37-.29,1,1,0,0,1-.13-.45l.39,0a.64.64,0,0,0,.12.34.25.25,0,0,0,.17.08A.27.27,0,0,0,8,3.69a.34.34,0,0,0,0-.18.52.52,0,0,0-.15-.34l-.36-.34a1.22,1.22,0,0,1-.27-.33.8.8,0,0,1-.11-.4.7.7,0,0,1,.1-.38.52.52,0,0,1,.36-.27V1.27H8v.18a.57.57,0,0,1,.27.13.76.76,0,0,1,.21.47l-.39.07A.47.47,0,0,0,8,1.86a.18.18,0,0,0-.16-.07.21.21,0,0,0-.17.1.42.42,0,0,0,0,.2.65.65,0,0,0,.16.38,1.56,1.56,0,0,0,.18.17,1.22,1.22,0,0,1,.19.17,1.38,1.38,0,0,1,.23.29A.94.94,0,0,1,8.46,3.49Z"/><path class="cls-1" d="M19.19,4.61A3.68,3.68,0,0,0,12.91,2a3.67,3.67,0,0,0,0,5.2,3.68,3.68,0,0,0,6.28-2.6Zm-2.68.9a.92.92,0,0,1-.27.73.72.72,0,0,1-.41.2V6.7h-.46V6.43a.79.79,0,0,1-.5-.39,1.32,1.32,0,0,1-.17-.61l.52,0a.73.73,0,0,0,.17.46.25.25,0,0,0,.22.1.34.34,0,0,0,.29-.17.54.54,0,0,0,0-.24.65.65,0,0,0-.2-.45l-.49-.47a1.66,1.66,0,0,1-.36-.44,1,1,0,0,1-.15-.54,1,1,0,0,1,.14-.51.75.75,0,0,1,.48-.37V2.53h.46v.23A.87.87,0,0,1,16.2,3a.88.88,0,0,1,.28.62l-.52.1a.66.66,0,0,0-.13-.35.27.27,0,0,0-.22-.09.23.23,0,0,0-.22.13.45.45,0,0,0-.07.27.77.77,0,0,0,.22.51,1.82,1.82,0,0,0,.24.23l.25.22a2,2,0,0,1,.31.4A1.21,1.21,0,0,1,16.51,5.51Z"/></g></g></svg>