<svg xmlns="http://www.w3.org/2000/svg" viewBox="0 0 17.25 17.25"><defs><style>.cls-1{fill:#fff;}</style></defs><title>sidebar-Asset 5</title><g id="Layer_2" data-name="Layer 2"><g id="Layer_3" data-name="Layer 3"><path class="cls-1" d="M17.15,7.36A.4.4,0,0,0,16.76,7H16a.82.82,0,0,1-.55-.55,7.91,7.91,0,0,0-.6-1.36.39.39,0,0,1,0-.47L15.5,4a.41.41,0,0,0,.05-.52,8.63,8.63,0,0,0-1.76-1.76.4.4,0,0,0-.52,0l-.65.65a.38.38,0,0,1-.47.06,7.26,7.26,0,0,0-1.94-.76h0V.49A.38.38,0,0,0,9.87.1,7.24,7.24,0,0,0,8.63,0,7.28,7.28,0,0,0,7.38.1.38.38,0,0,0,7,.49V1.71H7a7.26,7.26,0,0,0-1.94.76.38.38,0,0,1-.47-.06L4,1.76a.4.4,0,0,0-.52,0A8.63,8.63,0,0,0,1.7,3.48.41.41,0,0,0,1.75,4l.65.65a.39.39,0,0,1,.05.47,7.91,7.91,0,0,0-.6,1.36A.82.82,0,0,1,1.3,7H.49a.4.4,0,0,0-.39.33A8.71,8.71,0,0,0,0,8.63,8.68,8.68,0,0,0,.1,9.89a.4.4,0,0,0,.39.33H1.3a.82.82,0,0,1,.55.55,7.91,7.91,0,0,0,.6,1.36.39.39,0,0,1-.05.47l-.65.65a.41.41,0,0,0-.05.52,8.63,8.63,0,0,0,1.76,1.76.4.4,0,0,0,.52,0l.65-.65a.38.38,0,0,1,.47-.06A7.26,7.26,0,0,0,7,15.54H7v1.22a.38.38,0,0,0,.34.39,7.28,7.28,0,0,0,1.25.1,7.24,7.24,0,0,0,1.24-.1.38.38,0,0,0,.34-.39V15.54h0a7.26,7.26,0,0,0,1.94-.76.38.38,0,0,1,.47.06l.65.65a.4.4,0,0,0,.52,0,8.63,8.63,0,0,0,1.76-1.76.41.41,0,0,0-.05-.52l-.65-.65a.39.39,0,0,1,0-.47,7.91,7.91,0,0,0,.6-1.36.82.82,0,0,1,.55-.55h.81a.4.4,0,0,0,.39-.33,8.68,8.68,0,0,0,.1-1.26A8.71,8.71,0,0,0,17.15,7.36Zm-3.91,2A4.67,4.67,0,1,1,7.89,4,4.69,4.69,0,0,1,13.24,9.36Z"/><path class="cls-1" d="M10.79,8.1H10.3V6.92A1.68,1.68,0,0,0,7,6.92V8.1H6.46a.2.2,0,0,0-.2.2v2.75a.2.2,0,0,0,.2.2h4.33a.2.2,0,0,0,.2-.2V8.3A.2.2,0,0,0,10.79,8.1Zm-1.48,0H7.94V6.92a.69.69,0,1,1,1.37,0Z"/></g></g></svg>