<svg xmlns="http://www.w3.org/2000/svg" viewBox="0 0 21.93 17.25"><defs><style>.cls-1{fill:#fff;fill-rule:evenodd;}</style></defs><title>sidebar-Asset 8</title><g id="Layer_2" data-name="Layer 2"><g id="Layer_3" data-name="Layer 3"><path class="cls-1" d="M11.67.37l9.17,2.85c1.17.53,1.32,1,.82,1.47a3.28,3.28,0,0,1-3.25.41c-.56-.16-3.91-.75-4.7-.82l-1-.08h0a1.77,1.77,0,0,0-1.13-1.88.76.76,0,0,0-.68,0h0l-.17.07L7.48,3.74l3.33-1.12L11,2.54h0a.62.62,0,0,1,.54,0,1.61,1.61,0,0,1,1,1.71c0,.36-.37.55-.66.74a4.8,4.8,0,0,1-2.34.52H9.34c-.25,0-.53.06-.77.06l-.67.1a2.06,2.06,0,0,0-.9.56l-.22.19a3.82,3.82,0,0,1-2.86.66V2.34L8.52.4a3.44,3.44,0,0,1,3.15,0ZM11,3l-.05,0-.83.28a3.86,3.86,0,0,0,.12.59c.09.35.22.76.29,1.15a2.12,2.12,0,0,0,1.12-.41c.15-.09.45-.25.48-.44a1.62,1.62,0,0,0-.06-.58,1,1,0,0,0-.66-.7c-.13,0-.12,0-.25,0l-.05,0L11,3l0,0Z"/><path class="cls-1" d="M3.57,2.1V7.86a.4.4,0,0,1-.4.4H.42a.4.4,0,0,1-.4-.4L0,1.58a.4.4,0,0,1,.4-.4H3.16a.4.4,0,0,1,.4.4V2.1ZM2.11,6.63V6a.32.32,0,0,0-.32-.32A.33.33,0,0,0,1.47,6v.62a.32.32,0,1,0,.63,0Z"/><path class="cls-1" d="M10.59,11.75a2.83,2.83,0,0,0-.83-2,2.84,2.84,0,0,0-4,0,2.84,2.84,0,1,0,4.84,2Zm-2.09.68a.66.66,0,0,1-.2.54.54.54,0,0,1-.3.15v.19H7.65v-.2a.61.61,0,0,1-.38-.29,1.08,1.08,0,0,1-.12-.46l.39,0a.64.64,0,0,0,.12.34.2.2,0,0,0,.17.07.25.25,0,0,0,.22-.13.4.4,0,0,0,0-.18.49.49,0,0,0-.15-.33l-.37-.35a1.22,1.22,0,0,1-.27-.33.8.8,0,0,1-.11-.4.76.76,0,0,1,.1-.39.55.55,0,0,1,.36-.27V10.2H8v.17a.58.58,0,0,1,.27.14.65.65,0,0,1,.21.47l-.39.07a.46.46,0,0,0-.1-.27.21.21,0,0,0-.33,0,.39.39,0,0,0,0,.2.65.65,0,0,0,.16.38,1.56,1.56,0,0,0,.18.17l.2.17a1.5,1.5,0,0,1,.23.3A.79.79,0,0,1,8.5,12.43Z"/><path class="cls-1" d="M19.29,13.55a3.69,3.69,0,1,0-1.08,2.62,3.67,3.67,0,0,0,1.08-2.62Zm-2.69.91a1,1,0,0,1-.27.73.76.76,0,0,1-.41.2v.26h-.47v-.27A.79.79,0,0,1,15,15a1.36,1.36,0,0,1-.18-.61l.53,0a.73.73,0,0,0,.17.46.25.25,0,0,0,.22.1.32.32,0,0,0,.29-.18.38.38,0,0,0,.06-.24.67.67,0,0,0-.21-.45l-.49-.46a2,2,0,0,1-.37-.45,1.11,1.11,0,0,1-.14-.54,1,1,0,0,1,.14-.52.71.71,0,0,1,.48-.36v-.24h.47v.24a.76.76,0,0,1,.37.18.92.92,0,0,1,.28.63l-.53.1a.65.65,0,0,0-.13-.36.23.23,0,0,0-.21-.09.25.25,0,0,0-.23.14.45.45,0,0,0-.07.27.84.84,0,0,0,.22.51,1.82,1.82,0,0,0,.24.23l.26.22a2.1,2.1,0,0,1,.31.41A1.17,1.17,0,0,1,16.6,14.46Z"/></g></g></svg>