<svg xmlns="http://www.w3.org/2000/svg" viewBox="0 0 13.85 13.85"><defs><style>.cls-1{fill:#fff;}</style></defs><title>sidebar-Asset 9</title><g id="Layer_2" data-name="Layer 2"><g id="Layer_3" data-name="Layer 3"><path class="cls-1" d="M8,5.66a.41.41,0,0,0-.42-.41H5.87a.41.41,0,0,0-.41.41v5.88H8Zm3.57.84a.42.42,0,0,0-.42-.42H9.44A.42.42,0,0,0,9,6.5v5h2.52Zm1.68,6.09H.63a.63.63,0,0,0,0,1.26H13.22a.63.63,0,1,0,0-1.26ZM4.41,7.76A.42.42,0,0,0,4,7.34H2.31a.42.42,0,0,0-.42.42v3.78H4.41Z"/><path class="cls-1" d="M12.15,0,10.26.27a.38.38,0,0,0-.21.64l.44.43L9,2.86,6.47,1a.63.63,0,0,0-.78,0l-4,3.28a.63.63,0,0,0-.09.89.64.64,0,0,0,.49.22.61.61,0,0,0,.4-.14l3.6-3L8.64,4.2a.64.64,0,0,0,.83-.06l1.91-1.91.29.29a.37.37,0,0,0,.63-.21L12.57.43A.38.38,0,0,0,12.15,0Z"/></g></g></svg>