<svg xmlns="http://www.w3.org/2000/svg" viewBox="0 0 20.32 14.75"><defs><style>.cls-1{fill:#fff;}</style></defs><title>sidebar-Asset 6</title><g id="Layer_2" data-name="Layer 2"><g id="Layer_3" data-name="Layer 3"><path class="cls-1" d="M9.82,8.51l-.12.12-.14.11L9.28,9l-2,4.1-.4-2.36.59-.95-.22,0a4.93,4.93,0,0,1-.57.07H6.38a5.17,5.17,0,0,1-1.19-.14l.59,1-.37,2.4L3.2,8.75l-.3-.26,0,0A9.57,9.57,0,0,0,0,14.75H12.54c-.41-4.4-2.24-5.91-2.72-6.24"/><path class="cls-1" d="M6.38,0a4.76,4.76,0,1,0,4.75,4.75A4.76,4.76,0,0,0,6.38,0"/><path class="cls-1" d="M20,11.62a.07.07,0,0,0,0-.08.1.1,0,0,0-.05-.08,2.39,2.39,0,0,1-1-1A1.89,1.89,0,0,0,20,11a.11.11,0,0,0,.09,0,.07.07,0,0,0,0-.09,16.68,16.68,0,0,1-.81-3.36c-.12-.71-.24-1.4-.4-2a3.76,3.76,0,0,0-.25-.76,3.41,3.41,0,0,0-.41-.81,2.73,2.73,0,0,0-1.76-1.16,3.56,3.56,0,0,0-1.13-.18,3.32,3.32,0,0,0-2,.69,3.22,3.22,0,0,0-1.23,1.59,5.49,5.49,0,0,0-.41,1.34,2.65,2.65,0,0,0-.05.38c0,.16,0,.32-.07.48a10,10,0,0,0,.12,2.75,11.22,11.22,0,0,1,1.47,5h7.18a9.14,9.14,0,0,0-.73-2.9,3.06,3.06,0,0,0,.4-.23m-2.2-.57c-.06.07-1.18.8-1.18.8l.55.76L15.41,14h0l-1.75-1.37.55-.76s-1.12-.73-1.18-.8.51-.7.51-.7L15.41,14l1.88-3.63s.6.57.5.7"/></g></g></svg>