<svg xmlns="http://www.w3.org/2000/svg" viewBox="0 0 54.67 50.81"><defs><style>.cls-1{fill:#231f20;}</style></defs><title>master-Asset 2</title><g id="Layer_2" data-name="Layer 2"><g id="Layer_3" data-name="Layer 3"><path class="cls-1" d="M43,37.51a6.65,6.65,0,1,0,6.65,6.65A6.66,6.66,0,0,0,43,37.51Zm0,8.26a1.61,1.61,0,1,1,1.6-1.61A1.61,1.61,0,0,1,43,45.77Z"/><path class="cls-1" d="M17.7,37.51a6.65,6.65,0,1,0,6.65,6.65A6.66,6.66,0,0,0,17.7,37.51Zm0,8.26a1.61,1.61,0,1,1,1.6-1.61A1.61,1.61,0,0,1,17.7,45.77Z"/><path class="cls-1" d="M53.59,36.94H7.27a1.08,1.08,0,0,1-1.08-1.08V5H1.08a1.08,1.08,0,0,1,0-2.16H7.27A1.08,1.08,0,0,1,8.35,3.88v30.9H53.59a1.08,1.08,0,0,1,0,2.16Z"/><path class="cls-1" d="M10.07,0V33.51H51.68V0ZM22.68,17.36l1.82,3.58h-.92l0,8.32H21.87L21.82,21H20.9Zm-5.35.05L19.14,21h-.92l.05,8.31H16.51l0-8.31h-.92ZM14.45,31v-.88L25.7,30v.88ZM46.62,10a4.15,4.15,0,0,0-2.63.94,6.88,6.88,0,0,0-4-1.27l.17,9.57a1.28,1.28,0,0,0,1.3,1.25,1.26,1.26,0,0,0,1.24-1.29v-.27l.79,0v.27a2.06,2.06,0,0,1-4.12.08l-.16-9.59a6.92,6.92,0,0,0-4.23,1.43,4.14,4.14,0,0,0-2.66-.85,4.48,4.48,0,0,0-1.74.38,8.94,8.94,0,0,1,17.82-.31A4.25,4.25,0,0,0,46.62,10Z"/></g></g></svg>