<svg xmlns="http://www.w3.org/2000/svg" viewBox="0 0 41.91 41.91"><defs><style>.cls-1{fill:#231f20;}</style></defs><title>pembelian-Asset 4</title><g id="Layer_2" data-name="Layer 2"><g id="Layer_3" data-name="Layer 3"><path class="cls-1" d="M37.28,0H4.64A4.64,4.64,0,0,0,0,4.64V37.28a4.63,4.63,0,0,0,4.64,4.63H37.28a4.63,4.63,0,0,0,4.63-4.63V4.64A4.63,4.63,0,0,0,37.28,0ZM18.6,35.76a1.54,1.54,0,0,1-1.55,1.55H6.15A1.54,1.54,0,0,1,4.6,35.76V24.86a1.54,1.54,0,0,1,1.55-1.55h10.9a1.54,1.54,0,0,1,1.55,1.55Zm0-18.71a1.54,1.54,0,0,1-1.55,1.55H6.15A1.54,1.54,0,0,1,4.6,17.05V6.15A1.55,1.55,0,0,1,6.15,4.6h10.9A1.55,1.55,0,0,1,18.6,6.15ZM37.32,35.76a1.55,1.55,0,0,1-1.55,1.55H24.86a1.55,1.55,0,0,1-1.55-1.55V24.86a1.55,1.55,0,0,1,1.55-1.55H35.77a1.55,1.55,0,0,1,1.55,1.55Zm0-18.71a1.55,1.55,0,0,1-1.55,1.55H24.86a1.55,1.55,0,0,1-1.55-1.55V6.15A1.56,1.56,0,0,1,24.86,4.6H35.77a1.56,1.56,0,0,1,1.55,1.55Z"/><rect class="cls-1" x="25.72" y="10.7" width="9.18" height="2.52"/><rect class="cls-1" x="25.72" y="28.98" width="9.18" height="2.52"/><rect class="cls-1" x="29.32" y="25.93" width="1.97" height="1.89"/><rect class="cls-1" x="29.32" y="32.65" width="1.97" height="1.89"/><polygon class="cls-1" points="13.96 26.27 11.61 28.63 9.25 26.27 7.47 28.05 9.83 30.41 7.47 32.77 9.25 34.55 11.61 32.19 13.96 34.55 15.74 32.77 13.39 30.41 15.74 28.05 13.96 26.27"/><polygon class="cls-1" points="12.87 7.37 10.35 7.37 10.35 10.7 7.02 10.7 7.02 13.22 10.35 13.22 10.35 16.55 12.87 16.55 12.87 13.22 16.2 13.22 16.2 10.7 12.87 10.7 12.87 7.37"/></g></g></svg>