<svg xmlns="http://www.w3.org/2000/svg" viewBox="0 0 19.04 16.37"><defs><style>.cls-1{fill:#fff;}</style></defs><title>trx-Asset 6</title><g id="Layer_2" data-name="Layer 2"><g id="Layer_3" data-name="Layer 3"><path class="cls-1" d="M10.1.67A2.93,2.93,0,0,0,7.71,0L3.23.76A4,4,0,0,0,0,4.56v7.25a4,4,0,0,0,3.23,3.8l4.48.72a3,3,0,0,0,.52,0,2.86,2.86,0,0,0,1.87-.67,2.94,2.94,0,0,0,1-2.26V2.93A2.94,2.94,0,0,0,10.1.67Zm0,12.77a1.85,1.85,0,0,1-2.22,1.88L3.39,14.6A3,3,0,0,1,1,11.81V4.56A3,3,0,0,1,3.39,1.77L7.87,1a1.92,1.92,0,0,1,1.57.41,1.89,1.89,0,0,1,.65,1.48Z"/><polygon class="cls-1" points="12.56 8.19 15.92 11.04 15.92 9.12 19.04 9.12 19.04 7.25 15.92 7.25 15.92 5.33 12.56 8.19"/><path class="cls-1" d="M8.77,8.18A.82.82,0,1,1,8,7.37.81.81,0,0,1,8.77,8.18Z"/></g></g></svg>