<svg xmlns="http://www.w3.org/2000/svg" viewBox="0 0 25.49 23.89"><defs><style>.cls-1{fill:#fff;}</style></defs><title>trx-Asset 1</title><g id="Layer_2" data-name="Layer 2"><g id="Layer_3" data-name="Layer 3"><path class="cls-1" d="M6.37,19.11v4.78H19.12v-8H6.37ZM8,17.52h9.55v1.59H8Zm0,3.19h9.55V22.3H8Z"/><polygon class="cls-1" points="19.11 4.78 19.11 0 6.37 0 6.37 4.78 6.37 7.96 19.11 7.96 19.11 4.78"/><path class="cls-1" d="M22.3,4.78H20.71V9.56H4.78V4.78H3.19A3.42,3.42,0,0,0,0,8v8a3.43,3.43,0,0,0,3.19,3.19H4.78V14.34H20.71v4.78H22.3a3.44,3.44,0,0,0,3.19-3.19V8A3.43,3.43,0,0,0,22.3,4.78"/></g></g></svg>