<svg xmlns="http://www.w3.org/2000/svg" viewBox="0 0 64.94 33.64"><defs><style>.cls-1{fill:#231f20;}</style></defs><title>master-Asset 4</title><g id="Layer_2" data-name="Layer 2"><g id="Layer_3" data-name="Layer 3"><path class="cls-1" d="M2.49,10c.06-.09.12-.2.2-.3l.25-.34L3.24,9l.34-.41c.25-.28.52-.58.83-.88l.47-.45A2.75,2.75,0,0,1,5.14,7l.26-.23.27-.22L6,6.34l.29-.21c.1-.07.19-.15.29-.21l.31-.2.31-.2.31-.18.32-.19L8.11,5l.32-.16.33-.16.33-.14.33-.14.33-.13.17-.06.16-.06L10.41,4l.32-.1.08,0,.08,0,.16,0,.16,0,.08,0,.08,0,.3-.07.3-.07.3,0,.28-.05.27,0c.36-.06.69-.09,1-.11h0V2.2l-.18,0c-.31,0-.66.11-1,.2l-.29.07-.29.07-.31.09-.31.09-.33.1-.08,0-.08,0L10.78,3,10.61,3l-.08,0-.08,0-.33.13-.34.14-.17.08-.16.08-.34.16-.34.17L8.44,4l-.33.19-.33.19-.32.21-.32.21-.31.22-.3.23-.3.23-.29.24L5.66,6l-.27.24-.26.25-.25.25L4.64,7l-.44.49c-.29.33-.54.65-.77,1l-.31.44-.27.41-.23.36L2.44,10c-.11.19-.19.34-.24.44l-.09.16.1-.15A4.29,4.29,0,0,1,2.49,10Z"/><path class="cls-1" d="M19.46,12.78l1.43-.35H21a.41.41,0,0,1,.29.13l.1.12,7.77-.84,0-.06-.18-.41-.2-.42-.09-.17-.23-.42-.16-.28-9.55,1,.09,1.2A6.29,6.29,0,0,1,19.46,12.78Z"/><path class="cls-1" d="M13.33,19.83a2.69,2.69,0,0,1-.78-1.77C.32,21-.23,25.49.05,27.17a.49.49,0,0,0,.73.35l12.86-7.43A3.88,3.88,0,0,1,13.33,19.83Zm-1.19-1a4.24,4.24,0,0,1-.43.16l-.3.12-.18.06-.18.07-.41.16-.46.17-.49.19L9.17,20l-.55.22-.29.12-.28.12-.3.13-.29.13-.3.13-.3.14c-.4.19-.8.38-1.2.59-.2.1-.4.2-.59.31l-.58.33-.14.09-.14.08-.14.09-.13.08-.14.09-.13.09-.07,0-.06,0-.13.09c-.34.24-.66.49-1,.74L2.05,24l-.35.38a5.24,5.24,0,0,0-.54.73L1,25.45q-.06.16-.12.3c0,.09,0,.18-.07.25s0,.14,0,.19,0,.1,0,.12a.06.06,0,0,0,0,0,.06.06,0,0,1,0,0,.35.35,0,0,1,0-.12,1.79,1.79,0,0,1,.05-.46A2.87,2.87,0,0,1,1,25.05c0-.07.07-.13.1-.2l.06-.1.06-.1a4.29,4.29,0,0,1,.28-.41,4.1,4.1,0,0,1,.34-.41l.19-.21.2-.21.11-.1.11-.1.12-.11L2.7,23,3,22.8l.12-.09.13-.1.53-.38.14-.1L4,22l.29-.18.29-.17.29-.17.6-.32c.41-.21.82-.41,1.23-.59l.3-.13.31-.13.3-.12.3-.12.3-.11.29-.11.28-.1.28-.1.28-.09.26-.08.51-.16.47-.14.21-.06L11,19.1l.19-.05.18,0,.32-.08.26-.06.19-.05.16,0Z"/><path class="cls-1" d="M16.68,33.5h-.9l-.55,0-.62,0-.32,0-.34,0-.34-.06-.18,0-.18,0a12.85,12.85,0,0,1-1.49-.36l-.38-.11L11,32.64l-.77-.3a15,15,0,0,1-1.51-.73,14.73,14.73,0,0,1-1.42-.89c-.45-.32-.87-.66-1.26-1l-.15-.13a1.85,1.85,0,0,0-.14-.14l-.27-.26-.27-.26-.12-.13L5,28.66l-.12-.13-.11-.13-.23-.26-.21-.25-.1-.13-.09-.12L3.9,27.4l-.17-.24-.16-.23-.14-.21-.16-.25-1,.58c.07.1.15.21.24.32l.17.22c0,.08.12.16.18.24l.2.24.22.24.11.13.11.12.25.26.25.26.14.13.13.13.14.13.15.13.29.26.32.26.15.13.17.12a14.43,14.43,0,0,0,1.4,1,16.21,16.21,0,0,0,1.54.83,14.57,14.57,0,0,0,1.61.64c.27.1.55.18.82.26l.4.1.4.1c.53.11,1.05.2,1.55.26l.18,0,.18,0,.36,0,.34,0h1.51c.35,0,.66,0,.91-.07l.57-.07.21,0h-.21Z"/><path class="cls-1" d="M17.3,21.22a3.86,3.86,0,0,1-2.07.6A3.9,3.9,0,0,1,12.84,21l-3.4,2a.08.08,0,0,0,0,0l1.62-.39a6.93,6.93,0,0,0,.93.68L12.16,25a7.5,7.5,0,0,0,1.41.46l1.08-1.27a5.49,5.49,0,0,0,.58,0,5.63,5.63,0,0,0,.58,0l1.08,1.27A7.5,7.5,0,0,0,18.3,25l.12-1.66c.21-.13.41-.26.61-.41C18.46,22.37,17.89,21.81,17.3,21.22Z"/><path class="cls-1" d="M8.84,27.36c-.15-.14-.31-.28-.46-.44l-.45-.48c-.14-.17-.29-.33-.42-.5l-.38-.51L7,25.18l-.08-.12-.08-.12-.14-.23-.09-.15-.91.52h0l.17.21.2.22a.52.52,0,0,0,.1.11l.11.12.22.23.49.46c.17.16.35.31.53.45l.55.42.56.37.27.16.13.08.13.07.25.14c.08.05.16.08.24.12l.22.11.2.09.17.08.16.06.28.12-.26-.16-.14-.09-.16-.11-.18-.12-.19-.14-.21-.16-.22-.18-.11-.09-.11-.09Z"/><path class="cls-1" d="M13.81,14.26V10.68l-.24-.28a7.5,7.5,0,0,0-1.41.46L12,12.52a6.93,6.93,0,0,0-.93.68l-1.62-.39A8,8,0,0,0,8.6,14l.88,1.42a6.74,6.74,0,0,0-.36,1.1l-1.54.63a7,7,0,0,0,0,1.49l.64.26c.93-.32,2-.64,3.1-.94v-.06A3.92,3.92,0,0,1,13.81,14.26Z"/><path class="cls-1" d="M15.23,20.36a2.43,2.43,0,1,0-2.44-2.43A2.43,2.43,0,0,0,15.23,20.36Zm1.25-2.43a1.25,1.25,0,0,1-1.25,1.25h-.08a1.25,1.25,0,0,0,0-2.5h.08A1.25,1.25,0,0,1,16.48,17.93ZM15.33,16h.12a1.92,1.92,0,0,0,0,3.84h-.12a1.92,1.92,0,1,1,0-3.84Z"/><path class="cls-1" d="M16.46,15.55C20.11,3.38,16.46.64,14.86,0a.5.5,0,0,0-.67.46v15a2.68,2.68,0,0,1,2.27.09ZM15.25,1.07l.11.05a2,2,0,0,1,.38.27,3.42,3.42,0,0,1,.47.55l.12.18.06.1.06.1q.11.21.21.45c.07.16.13.33.19.5l.09.27c0,.1,0,.19.07.29a.57.57,0,0,1,0,.14l0,.15,0,.15,0,.15a2.87,2.87,0,0,1,.05.31l0,.15a.78.78,0,0,0,0,.16c0,.22.05.43.06.65V6c0,.12,0,.23,0,.34s0,.23,0,.34V7c0,.23,0,.45,0,.68,0,.45-.06.91-.1,1.35l0,.34,0,.32c0,.11,0,.22-.05.33s0,.21-.05.31l-.05.32c0,.1,0,.2,0,.3s0,.2-.05.3l-.06.29-.06.28-.06.28-.11.51-.12.48-.06.21-.05.21-.05.19-.05.18-.09.32c0,.09-.05.18-.08.25l-.05.19-.05.15,0-.16c0-.1.05-.25.08-.45l0-.32,0-.18,0-.2c0-.14,0-.28.07-.43l.07-.48.09-.52c0-.18.05-.37.08-.56s0-.39.08-.59l0-.3,0-.32,0-.31c0-.11,0-.21,0-.32l0-.33,0-.33c0-.43.08-.88.1-1.33,0-.22,0-.45,0-.67V6.2a.86.86,0,0,0,0-.16V5.72a.81.81,0,0,0,0-.16V5.08c0-.41-.09-.81-.16-1.19,0-.19-.08-.37-.13-.54a4.13,4.13,0,0,0-.15-.5A5.29,5.29,0,0,0,16.08,2c-.07-.12-.13-.23-.2-.33l-.2-.25-.18-.19-.15-.12-.1-.06a.06.06,0,0,0,0,0Z"/><path class="cls-1" d="M17.16,14.5a3.93,3.93,0,0,1,2,3.41,3.71,3.71,0,0,1,0,.47l2.14,1.23.09-.33,1.54-.63c0-.25,0-.49,0-.74s0-.5,0-.75l-1.54-.63a6.74,6.74,0,0,0-.36-1.1L21.86,14a8,8,0,0,0-.88-1.2l-1.62.39a6.44,6.44,0,0,0-.94-.68l-.12-1.66L18,10.74C17.82,11.88,17.54,13.13,17.16,14.5Z"/><path class="cls-1" d="M28.37,9.53l.09.13.08.15.21.35.22.42a1.79,1.79,0,0,1,.12.24l.13.25.06.13.06.13.12.28c.05.1.08.2.12.3l.13.31c0,.1.07.21.11.32l.12.33.1.35.06.18,0,.18.09.37.09.37,0,.19a1.42,1.42,0,0,1,0,.2l.07.39.06.4,0,.2,0,.2,0,.4,0,.41c0,.07,0,.14,0,.21v.2c0,.14,0,.28,0,.41v.58h0v.64l0,.4a14.94,14.94,0,0,1-.25,1.56A14.19,14.19,0,0,1,30,22.16c-.15.44-.3.86-.46,1.23l-.11.27-.12.26-.06.13-.06.12,0,0,1,.57.07-.17,0-.13.06-.14.1-.29c0-.09.07-.2.11-.3q.21-.61.39-1.35t.3-1.53c.07-.53.12-1.09.14-1.66V18.13h0v-.16l0-.42c0-.14,0-.29,0-.43l0-.22,0-.21-.06-.42-.07-.42,0-.2,0-.21-.09-.4-.1-.4c0-.06,0-.13-.05-.19l-.06-.2-.11-.38-.13-.36-.06-.18-.07-.18-.13-.34c-.05-.12-.1-.23-.14-.34s-.09-.21-.14-.31l-.15-.31a2.59,2.59,0,0,0-.14-.29l-.15-.27-.07-.14L29.35,11l-.14-.25-.14-.23-.25-.4-.23-.34-.1-.14-.09-.13-.14-.19-.12-.16.1.17Z"/><path class="cls-1" d="M18.79,23.51l0,.58,1.77.07c-.39-.31-.79-.66-1.2-1A6.3,6.3,0,0,1,18.79,23.51Z"/><path class="cls-1" d="M7.9,9.47l.19-.15.22-.16L8.56,9l.13-.09.07,0,.07,0,.3-.18a3.37,3.37,0,0,1,.32-.19l.16-.09.09-.05.08,0,.36-.18L10.32,8l.19-.08.18-.09.2-.07.19-.07.19-.08.39-.12.2-.06.2-.06.19-.05.19,0,.38-.09c.26,0,.5-.09.73-.11l.3,0V6l-.13,0-.36.1c-.25.06-.5.15-.76.23l-.39.14-.2.08-.2.08-.2.09-.19.09L11,7l-.2.1-.19.11-.18.1-.19.12-.18.11-.17.11-.34.23L9.49,8,9.41,8l-.15.12c-.1.08-.21.15-.3.23l-.28.23-.06.05-.06.06-.12.11L8.21,9,8,9.24l-.18.17-.13.15-.27.29.3-.25Z"/><path class="cls-1" d="M64.89,18a10.56,10.56,0,0,0,0-1.13,10.87,10.87,0,0,0,0-1.14l-2.35-1A9.44,9.44,0,0,0,62,13l1.34-2.17A12.11,12.11,0,0,0,62,9l-2.47.6a9.86,9.86,0,0,0-1.43-1L57.9,6.06a12.28,12.28,0,0,0-2.15-.7L54.1,7.31a9.81,9.81,0,0,0-1.77,0L50.69,5.36a12.11,12.11,0,0,0-2.16.7L48.34,8.6a9.86,9.86,0,0,0-1.43,1L44.44,9a12.11,12.11,0,0,0-1.34,1.83L44.44,13a9.41,9.41,0,0,0-.54,1.68l-2.36,1c0,.38,0,.76,0,1.14s0,.76,0,1.13l2.36,1a9.68,9.68,0,0,0,.54,1.68L43.1,22.76a12.2,12.2,0,0,0,1.34,1.84l2.47-.6a9.8,9.8,0,0,0,1.43,1l.19,2.54a11.36,11.36,0,0,0,2.16.7l1.64-1.94a9.81,9.81,0,0,0,1.77,0l1.65,1.94a11.5,11.5,0,0,0,2.15-.7L58.09,25a9.8,9.8,0,0,0,1.43-1l2.47.6a12.2,12.2,0,0,0,1.34-1.84L62,20.6a9.71,9.71,0,0,0,.55-1.68ZM53.22,22.79a6,6,0,1,1,6-6A6,6,0,0,1,53.22,22.79Z"/><path class="cls-1" d="M29.52,10.52l.24.41.22.42c.05.09.09.18.13.27l.05.1L43,10.32a12.41,12.41,0,0,1,1.16-1.54.41.41,0,0,1,.29-.13h.09l2.28.56A10.34,10.34,0,0,1,48,8.38l0-.46L29.18,10l.22.35Z"/><path class="cls-1" d="M53.22,13.76a3.06,3.06,0,1,0,3.06,3.06A3.06,3.06,0,0,0,53.22,13.76Zm0,4a1,1,0,1,1,1-1A1,1,0,0,1,53.22,17.81Z"/><path class="cls-1" d="M27.52,21.08c0-.11,0-.22.05-.33a1,1,0,0,1,0-.17l0-.16c0-.22,0-.43.05-.64s0-.41,0-.6v-.53s0-.08,0-.12V18.2s0-.06,0-.1V18l0-.15,0-.3,0,.3v.25a.31.31,0,0,1,0,.09l0,.21v.11s0,.08,0,.12l0,.25c0,.09,0,.18-.05.27s-.07.37-.11.57-.1.39-.16.59l-.05.15c0,.06,0,.11,0,.16l-.11.3-.1.3-.12.29c0,.09-.08.19-.13.28l-.06.14-.06.13-.13.26-.1.2L27,23l0-.05.09-.29.09-.3,0-.15,0-.16c0-.11.05-.21.07-.32l.07-.33Z"/><path class="cls-1" d="M30.89,25.62l-13-7.5a2.64,2.64,0,0,1-.78,1.71c-.11.1-.22.2-.34.29C25.45,29.3,29.63,27.51,31,26.43A.5.5,0,0,0,30.89,25.62Zm-1,.63-.1.07a1.69,1.69,0,0,1-.42.19,3.71,3.71,0,0,1-.71.14h-.45a4.22,4.22,0,0,1-.49,0l-.54-.08-.27-.07-.28-.07-.15,0-.14-.05-.15,0L26,26.21l-.3-.11-.14-.05L25.43,26l-.6-.27-.15-.07-.14-.07-.3-.16-.3-.16-.29-.17-.58-.36c-.38-.25-.76-.5-1.12-.77l-.27-.2-.26-.2-.26-.2a2.43,2.43,0,0,1-.25-.2l-.25-.2-.23-.2-.24-.19-.22-.2-.21-.19L19.55,22l-.39-.36-.35-.33-.16-.16L18.49,21l-.14-.14-.13-.14L18,20.47a1.66,1.66,0,0,0-.18-.19l-.13-.15L17.57,20l.13.11.35.29.25.21.15.12.15.12.34.28.37.31.41.33.45.35c.15.11.3.24.47.36l.24.19.25.19.26.19.25.19.27.19.27.19c.36.25.73.51,1.11.75.19.12.37.24.57.35l.57.34.14.08.15.07.14.08.14.08.15.07.14.07.07,0,.07,0,.14.07c.38.17.76.32,1.12.45l.53.16.5.12a5.15,5.15,0,0,0,.9.1H29l.32-.05.25-.06.18-.07.11-.05,0,0Z"/><path class="cls-1" d="M28.88,23.88l.18-.38.07-.16a.42.42,0,0,1,0-.1l.22-.55-1.82-.08c0,.06,0,.12-.05.18l-.09.28,0,.05h0v0l1.43.83Z"/><path class="cls-1" d="M46.81,24.42,44.53,25h-.09a.37.37,0,0,1-.29-.13,11.93,11.93,0,0,1-1.2-1.6l-11.74-.49c-.12.44-.23.81-.34,1.13l0,.1-.08.21-.14.39L48,25.31v0A11.78,11.78,0,0,1,46.81,24.42Z"/></g></g></svg>